<?xml version="1.0" encoding="UTF-8"?><svg id="Capa_1" xmlns="http://www.w3.org/2000/svg" viewBox="0 0 400 400"><defs><style>.cls-1{fill:#8f07fd;}</style></defs><g id="_0Wkp9o.tif"><path class="cls-1" d="M384.38,280.01v12.7c-1.1,3.9-1.52,7.91-2.64,11.82-6.57,22.94-27.93,38.81-50.82,43.01-3.72.68-7.91.45-11.45,1.6H88.06c-53.72-4.24-80.53-50.5-55.15-99.22L146.46,60.84c31.48-45.18,84.88-44.1,115.45,1.28l113.42,189.21c4,7.92,8.23,19.9,9.05,28.69ZM197.95,105.97c-9.42,1.27-19.58,9.58-23.47,18.16-4.57,10.07-3.03,18.47.52,28.4,7.26,20.34,17.21,39.86,24.39,60.26,2.09,3.99,6.68,3.97,8.75,0,6.76-21.3,19.62-43.2,25.98-64.31,7.34-24.34-10.89-45.94-36.18-42.51ZM200.79,228.72c-39.91,4.35-29.09,66.31,10.59,55.72,33.28-8.88,23.78-59.47-10.59-55.72Z"/></g></svg>