<?xml version="1.0" encoding="UTF-8"?><svg id="Capa_1" xmlns="http://www.w3.org/2000/svg" viewBox="0 0 400 400"><defs><style>.cls-1{fill:#8f07fd;}.cls-2{fill:#f4f3e9;}</style></defs><circle class="cls-1" cx="200" cy="200" r="173.69"/><path class="cls-2" d="M183.99,207.86c-2.82,2.63-7.19,3.5-10.93,2.81l-35.17-12.34-34.79,12.34c-6.26,1.52-13.63-2.93-14.43-9.46-1.47-12.1,1.96-26.48.45-38.87l-22.61-29.53c-3.2-6.44-.73-12.57,5.15-16.14l36.21-10.99c7.75-8.75,13.41-21.51,20.89-30.16,4.4-5.09,10.84-6.04,16.42-2.17,8.61,10,14.89,21.94,23.1,32.33l37.28,11.57c5.45,4.06,7.34,10.68,3.45,16.57l-21.97,28.52c-1.48,12.41,1.93,26.74.45,38.87-.22,1.82-2.18,5.43-3.5,6.66Z"/><path class="cls-2" d="M289.37,313.24c-2.82,2.63-7.19,3.5-10.93,2.81l-35.17-12.34-34.79,12.34c-6.26,1.52-13.63-2.93-14.43-9.46-1.47-12.1,1.96-26.48.45-38.87l-22.61-29.53c-3.2-6.44-.73-12.57,5.15-16.14l36.21-10.99c7.75-8.75,13.41-21.51,20.89-30.16,4.4-5.09,10.84-6.04,16.42-2.17,8.61,10,14.89,21.94,23.1,32.33l37.28,11.57c5.45,4.06,7.34,10.68,3.45,16.57l-21.97,28.52c-1.48,12.41,1.93,26.74.45,38.87-.22,1.82-2.18,5.43-3.5,6.66Z"/></svg>