<?xml version="1.0" encoding="UTF-8"?><svg id="Capa_1" xmlns="http://www.w3.org/2000/svg" viewBox="0 0 400 400"><defs><style>.cls-1{fill:#8f07fd;}.cls-2{fill:#f4f3e9;}</style></defs><circle class="cls-1" cx="200" cy="200" r="173.69"/><path class="cls-2" d="M217.22,107.23h33.69c1.76-12.72,17.49-17.15,25.34-6.7,3.16,4.2,3.54,10.26,1.08,14.93-1.03,1.95-2.81,2.97-3.78,4.82l28.97,65.29c.9,1.19,7.02-1.51,7.66,2.78.75,4.99-4.65,4.31-8.06,4.24-1.42,14.42-12.3,27.41-26.06,31.67-23.21,7.2-46.42-7.93-49.93-31.62-2.84.05-6.53.31-6.66-3.47-.17-4.92,6.67-2.31,8.02-4.04l28.57-65.34-4.93-5.83h-33.92v10.11c0,.53-1.94,2.47-2.47,2.47h-7.41v128.49h26.73c.62,0,3.63.7,4.47.93,7.7,2.13,13.7,9.88,13.28,17.94h-106.02c0-7.35,4.65-14.33,11.38-17.15,1.45-.61,4.95-1.72,6.37-1.72h27.18V126.55h-7.86c-.78,0-2.47-2.15-2.47-2.92v-9.66h-34.82c-1.37.26-2.6,4.58-4.51,5.38l28.94,66.22c.75.96,8.76-1.38,8.05,3.99-.54,4.11-5.49,2.89-8.45,3.02-.67,10.5-7.17,20.44-15.58,26.43-23.4,16.66-56.97,2.04-59.89-26.43-3.28.28-7.37.09-6.72-4.23s6.86-1.62,7.67-2.77l28.52-64.86c-2.45-3.08-5.1-5.53-5.61-9.73-2.31-19.05,25.1-22.46,27.8-3.77h34.59v-10.11c0-8.62,10.19-17.27,18.64-17.2,7.85.06,18.2,7.63,18.2,15.85v11.46ZM102.21,185.85h60.65l-28.13-63.38-4.37.55-.7.65-27.45,62.17ZM294.94,185.85l-27.22-62.42-.84-.75-4.09-.03-28.05,63.2h60.2Z"/><path class="cls-2" d="M129.17,304.45v-15.05c0-.28,1.55-3.49,1.87-3.97,2.07-3.08,5.56-4.41,9.14-4.79l117.26-.02c4.92-.2,11.44,5.13,11.44,10.12v13.03l-.67.67h-139.04Z"/></svg>