<?xml version="1.0" encoding="UTF-8"?><svg id="Capa_1" xmlns="http://www.w3.org/2000/svg" viewBox="0 0 400 400"><defs><style>.cls-1{fill:#8f07fd;}.cls-2{fill:#f4f3e9;}</style></defs><circle class="cls-1" cx="200" cy="200" r="173.69"/><path class="cls-2" d="M298.18,229.32c-4.05,18.5-15.49,33.68-30.64,44.61-1.54,8.97,1.94,20.99-2.19,29.18-4.48,8.88-14.34,10.25-23.36,9.66-11.2-.73-19.17-8.11-18.32-19.7-16.18,3.11-32.96,3.84-49.18.52.1,7.32-2.04,14.1-8.62,17.98-7.01,4.14-21.65,4.24-28.3-.74-11.13-8.32-6.27-22.9-7.75-34.79-20.8-14.05-36.83-35.54-40.08-60.96-.93-7.27-.59-14.1-.16-21.38l-8.78-5.33c-1.75-.16-4.71,5.85-7.06,6.6-3.14,1.01-6.06-.94-5.91-4.27s5.75-6.36,6.94-9.57c-4.26-8-5.73-17.36-3.33-26.22,2.49-9.22,11.29-17.26,20.31-9.91,11.09,9.03.93,26.85-5.73,35.68-.18,1.14,5.17,4.86,5.77,4.42,6.29-23.51,23.5-42.9,44.32-54.86,1.68-.97,11.65-6.35,12.55-5.72,2.12,5.24,5.75,10.49,9.59,14.61.91.98,3.91,2.15,2.02,3.02-3.59,1.65-21.69,5.04-14.25,11.87,3.03,2.78,7.84-.86,11.31-2.03,23.86-8.01,47.94-9.23,72.31-2.36,2.97.84,10.61,4.24,12.91,4.14,3.77-.16,5.42-4.9,2.77-7.31-2.87-2.6-21.09-6.22-21.1-7.35,4.82-5.56,9.28-11.62,11.16-18.88,8.69,2.52,16.6,6.96,24.71,10.66l30.05-10.44c3.6-.57,5.48,2.43,4.68,5.78l-10.98,24.47c7.69,8.87,15.39,17.74,18.53,29.37,7.04,2.4,15.46,3.06,16.5,12.22.62,5.48.62,19.51,0,25-1.2,10.63-12.49,10.51-20.67,12.03ZM81.14,173.41c2.29-4.44,10.65-17.43,5.37-21.57-4.3-3.37-6.62,3.88-7.33,7.11-.89,4.05-.64,7.5.4,11.51.2.76.7,2.73,1.56,2.95ZM270.32,178.33c-10.49,1.7-8.15,18.85,3.47,16.76,10.39-1.87,8.27-18.66-3.47-16.76Z"/><path class="cls-2" d="M185.78,68.8c40.14-4.53,59.15,45.13,27.09,68.59-7.63-.38-15.33-1.08-23.01-.69-6,.3-11.94,1.78-17.94,2.04-22.36-12.86-24.89-44.65-5.17-61.32,4.86-4.11,12.66-7.9,19.03-8.62ZM194.24,81.58c-1.78-1.63-4.91-1.46-6.46.38s-.23,4.44-1.08,5.84c-.33.54-4.57,2.35-5.88,3.7-6.19,6.4-2.07,15.74,5.71,18.26,2.27.74,8.7.63,9.38,2.87,1.26,4.15-5.62,5.06-8.55,3.74-1.25-.57-1.8-1.89-2.87-2.45-5.54-2.91-9.87,4.32-3.04,8.88,1.15.77,5.27,2.04,5.42,2.29.73,1.15-.98,6.94,4.14,7.22,5.56.31,3.82-6.69,4.51-7.75.09-.15,2.38-.79,3.2-1.32,6.96-4.52,8.13-13.29,1.25-18.42-4.08-3.04-7.17-1.83-11.05-3.31-6.11-2.32-.24-7,5.49-5.48,3.08.81,4.36,5.34,8.46,2.64,5.42-3.57-2.88-11.14-7.36-10.92-.45-.52.77-4.29-1.28-6.16Z"/></svg>