<?xml version="1.0" encoding="UTF-8"?>
<svg id="b" data-name="Layer 2" xmlns="http://www.w3.org/2000/svg" viewBox="0 0 180.372 180.372">
  <defs>
    <style>
      .d {
        fill: #8f07fd;
      }

      .e {
        fill: #f4f3e9;
      }
    </style>
  </defs>
  <g id="c" data-name="Capa 1">
    <g>
      <path class="d" d="M85.629.117c49.741-2.517,92.104,35.764,94.625,85.505,2.52,49.741-35.757,92.107-85.497,94.632C45.011,182.778,2.638,144.496.118,94.75-2.403,45.004,35.883,2.634,85.629.117Z"/>
      <g>
        <path class="e" d="M137.705,119.569c-1.95.331-3.262,2.184-2.923,4.135.339,1.95,2.197,3.252,4.145,2.904,1.938-.343,3.231-2.189,2.894-4.126-.337-1.938-2.176-3.239-4.116-2.913Z"/>
        <path class="e" d="M152.951,101.107c-3.346-6.907-9.299-12.201-16.549-14.716-7.131-2.544-14.98-2.138-21.807,1.13-6.849,3.333-12.073,9.657-14.538,16.815-1.705,4.957-1.841,10.332-.881,15.453,2.8,14.944,18.035,25.806,33.113,22.255.004,2.245.197,5.001-2.814,5.164-1.764.096-3.513.059-5.281.061h-10.002l-26.99-.008c-4.361,0-9.395-.132-13.676.008,3.009-5.74-1.247-7.629-1.03-9.267.86-1.475,3.093-.433,4.511-4.704,3.024.601,6.051,1.176,9.083,1.726,4.34.91,8.688,1.781,13.042,2.607,1.772.345,4.269.737,5.961,1.186-3.589-2.923-6.982-8.629-8.778-12.858l-11.36-1.055c-1.735-.169-4.522-.37-6.194-.684-.301-2.099-1.019-3.153-2.708-4.405l.065-1.027c5.095-2.26,5.103-8.246.052-10.376-.983-.414-8.087-1.055-9.209-.969-.793.052-1.569.257-2.283.605-2.549,1.247-3.584,4.241-2.335,6.759.368.743,1.063,1.542,1.331,2.247-.423.768-3.704,1.567-3.888,4.024-.291,3.827-.937,7.912-.578,11.732.134,1.243,2.034,2.402,2.111,3.568-1.856,1.624-3.501,2.743-3.67,5.608-.092,1.818.55,3.597,1.783,4.938.109.119.226.234.345.343l-6.263.006c-1.603.006-4.702.295-5.834-.973-1.232-1.381-.868-4.8-.868-6.664v-8.416l.004-26.808v-43.307c0-7.273-.015-14.561.008-21.835.002-1.044.172-1.82.946-2.584.502-.496,1.272-.837,1.982-.862,2.304-.088,4.716-.048,7.024-.044l13.592.006,24.923.002c4.457,0,9.127-.069,13.569.025l.004,11.368c0,1.791-.132,5.428.239,7.003.331,1.396,1.04,2.67,2.053,3.685,2.806,2.76,6.89,2.174,10.517,2.17l10.615-.002.01,20.922c2.021.025,4.045.036,6.068.027l-.01-26.626c-.596-.831-2.553-2.683-3.381-3.507l-6.554-6.537-9.575-9.575c-1.448-1.448-3.509-3.656-4.965-4.93l-44.378-.021-13.959.002c-1.519-.002-5.455-.113-6.815.044-4.409.427-7.92,3.528-8.273,8.117-.161,2.084-.061,4.365-.061,6.464l.004,11.965v71.758l-.002,10.182c-.004,1.799-.084,4.43.084,6.16.226,2.578,1.477,4.957,3.469,6.606,3.358,2.724,6.206,2.293,10.255,2.287l8.34-.006h27.509l26.603.004h7.909c4.501.004,8.531.295,11.653-3.706,2.325-2.975,2.185-6.018,2.134-9.592,7.407-3.448,12.856-8.694,15.681-16.52,2.632-7.33,2.241-15.407-1.086-22.448ZM108.871,106.177c-.68-4.365,2.289-8.462,6.652-9.171,4.4-.716,8.543,2.287,9.232,6.694.686,4.407-2.346,8.531-6.756,9.188-4.369.653-8.447-2.346-9.127-6.71ZM122.941,125.93c-.749,1.184-1.532,2.484-2.35,3.618-.335.465-.942.655-1.469.799-1.27-.213-2.54-.942-2.484-2.434.01-.314.421-1.063.607-1.362,1.337-2.151,2.72-4.277,4.091-6.407l7.769-12.078,4.438-6.945c.703-1.105,1.435-2.304,2.18-3.383.297-.433.87-.64,1.36-.77,1.153.042,2.009.584,2.379,1.739.226.703-.123,1.375-.492,1.975-1.128,1.846-2.304,3.67-3.459,5.503l-8.125,12.77-4.446,6.974ZM138.726,131.041c-4.392.23-8.135-3.155-8.345-7.55-.211-4.394,3.191-8.121,7.585-8.311,4.367-.19,8.066,3.187,8.276,7.552.209,4.367-3.151,8.081-7.516,8.309Z"/>
        <path class="e" d="M117.271,108.57c1.974-.244,3.382-2.034,3.155-4.009-.227-1.976-2.006-3.399-3.984-3.189-2,.213-3.444,2.017-3.214,4.016.23,2,2.045,3.428,4.043,3.182Z"/>
        <path class="e" d="M115.952,75.084c3.68-1.422,2.155-5.634.368-5.902-2.288-.342-9.289-.182-11.582-.182l-23.823.002h-12.743c-2.221-.003-5.163-.084-7.313.045-.948.384-1.707.917-2.106,1.899-.303.744-.248,1.596.075,2.323.319.719.978,1.398,1.726,1.668,1.143.412,10.664.195,12.748.195h24.492s11.617,0,11.617,0c1.92,0,4.66.073,6.54-.049Z"/>
        <path class="e" d="M60.538,58.81c.438.171,1.142.138,1.613.173,7.266.011,14.545.008,21.811.008h7.776c1.148-.001,3.164.055,4.26-.056,1.107-.451,1.725-.929,2.209-2.06.64-1.5-.428-3.353-1.876-3.905-.449-.171-1.118-.13-1.595-.164-6.695-.025-13.412-.012-20.108-.009l-8.774.003c-1.491,0-3.435-.057-4.892.034-1.009.352-1.56.667-2.093,1.647-.886,1.632-.022,3.667,1.668,4.328Z"/>
        <path class="e" d="M96.975,85.178c-1.223-.774-5.762-.542-7.319-.542l-9.272-.002h-12.099c-2.137.001-4.542-.049-6.666.022-1.933.207-3.347,1.407-3.041,3.486.128.873.615,1.654,1.343,2.153,1.127.773,4.462.534,5.952.535l8.132.005c6.951.002,14.582.152,21.49-.04,3.185-.332,3.843-4.122,1.481-5.616Z"/>
      </g>
    </g>
  </g>
</svg>