<?xml version="1.0" encoding="UTF-8"?>
<svg id="b" data-name="Layer 2" xmlns="http://www.w3.org/2000/svg" viewBox="0 0 180.748 180.748">
  <defs>
    <style>
      .d {
        fill: #8f07fd;
      }

      .e {
        fill: #f4f3e9;
      }
    </style>
  </defs>
  <g id="c" data-name="Capa 1">
    <g>
      <circle class="d" cx="90.374" cy="90.374" r="90.374"/>
      <g>
        <path class="e" d="M38.76,47.943c2.364,2.582,5.287,2.765,7.913,4.301,3.058,1.788,4.77,2.963,8.097,4.255,3.305,1.283,6.995-.669,9.268.123.817.746,2.601,4.322,3.292,5.484,1.916,3.224,3.787,6.566,5.725,9.773.813,1.346,2.592,4.496,3.512,5.682,2.83-3.766,5.681-8.121,8.624-11.905.845,1.468.965,3.218,2,4.53.135.17.705.466.921.579,1.262-.216,4.398-1.059,5.335-.541.89,1.528,1.643,3.4,2.432,5.011,2.875,5.872,6.676,11.24,10.261,16.692.352.536.755,1.145,1.165,1.623,1.698-2.034,3.276-4.608,4.967-6.57.101,1.651.312,3.498.069,5.135-.117.789-.476,1.524-.657,2.301-.848,3.636-2.689,10.911-1.405,14.281.829,2.177,2.48,3.417,3.449,5.352.963,1.929.9,4.356,2.628,5.866,2.292,2.004,6.592,2.436,9.497,2.171,1.529-.139,2.978-.544,4.484-.788,1.113-.181,2.572-.069,3.599-.51.604-.259,1.182-.836,1.594-1.337.981-1.196,1.554-2.9,1.934-4.376.435-1.693.652-4.004,1.622-5.465,1.38-2.079,9.993-3.278,12.612-3.587,1.288-.151,2.918-.022,3.977.823.458.365.731.859.784,1.442.238,2.594-2.316,4.948-3.052,7.316-.431,1.384-.352,2.952-.384,4.391-.028,1.162.198,3.683-.598,4.568-.36.4-.836.668-1.306.914-.367-.272-.724-.527-1.071-.827-.724.48-1.701,1.156-2.598,1.294-1.845.277-3.888.619-5.747.737-1.641.105-5.455.441-3.602,3.041,1.093,1.534,4.844,3.175,3.787,5.556-.35.176-2.254-.11-2.738-.164-.835-.09-4.682.439-4.689,1.508-.017,2.547-3.546,3.567-5.562,2.978-.846-.246-2.219-1.168-3.052-1.561-1.549-.61-2.113-1.534-3.349-2.412-.516-.028-1.335-.079-1.82.007-3.124.557-6.057,2.706-9.357,2.537-.639-.033-1.677-.22-2.281-.431-2.133-.747-4.282-1.597-6.396-2.423-3.743-1.463-7.651-2.811-11.267-4.549-2.169-1.042-3.912-2.462-6.116-3.571-2.244-1.129-5.592-1.363-7.224-3.106-.777-.823-1.159-1.659-2.092-2.355-1.087-.81-2.181-.701-3.382-1.313-1.718-.875-3.267-2.978-4.482-4.432-.337-.404-.471-1.882-.423-2.38.053-1.936,1.285-3.269,1.638-5.057.086-.434.016-1.162-.104-1.59-.293-1.047-.737-2.139-1.114-3.173-.688-1.885-1.285-4.044-2.294-5.775-.554-.952-1.717-2.127-2.428-2.999-.37-.453-.918-1.053-1.354-1.452-.579-.53-1.343-1.086-1.899-1.625-.523-.508-.914-1.282-1.504-1.784-.453-.386-1.743-.632-1.99-1.004-.642-.969-1.54-2.315-2.148-3.28.182-.918.86-2.614.352-3.319-.586-.812-1.664-1.489-2.15-2.403-.459-1.08-.342-3.073-1.26-3.927-2.097-1.952-4.291-2.875-5.812-5.498-1.298-2.239-2.432-4.596-3.197-7.092-.262-.821-.36-2.228-.655-3.087-1.39-4.056-3.563-5.528-7.003-7.543.434,6.795,2.078,7.895,5.01,13.684,1.248,2.806,2.381,5.5,3.899,8.175.845,1.49,3.096,4.012,3.604,5.441,1.42,3.996.68,7.906,3.351,11.635.579.504,1.466,1.047,1.958,1.603,2.263,2.554,3.215,6.902-1.448,7.429-1.891.213-1.97-1.629-2.152-3.049-1.54-1.356-2.239-2.281-3.575-3.755-1.224-1.349-3.943-2.178-4.193-4.542-.105-.61.464-1.613.592-2.205.867-4.024-3.505-6.454-6.447-8.024-1.018-.543-1.961-.996-2.831-1.737-1.003-.982-2.662-3.244-2.715-4.665-.064-1.723,2.248-1.052,3.309-1.209,3.307-2.897-2.032-5.661-3.403-7.676-1.086-1.596-1.386-4.633-2.014-6.496-.586-1.794-6.044-6.085-1.815-11.018,1.802-2.103,10.903-.829,12.895,1.347ZM85.231,119.708c.23-.359.544-.816.74-1.182,1.738-2.771,3.45-5.559,5.136-8.361,1.83-3.023,5.099-8.408,5.932-11.669.443-1.769.457-3.619.041-5.395-.745-3.285-2.768-6.137-5.622-7.926-2.519-1.571-5.331-2.105-8.268-1.776-3.211.406-6.125,2.081-8.092,4.651-6.555,8.509,1.43,17.122,5.66,24.459,1.364,2.365,2.974,4.924,4.473,7.199Z"/>
        <path class="e" d="M106.586,58.12c2.219-.263,5.161.489,7.031,1.718,2.598,1.726,4.411,4.406,5.045,7.461.876,4.298-.669,6.913-2.635,10.516-2.372,4.346-5.147,7.968-7.891,12.065l-.44.702c-3.655-4.642-7.439-10.964-10.202-16.16-1.976-3.718-1.226-9.05,1.497-12.214,2.141-2.488,4.254-3.687,7.595-4.087ZM108.527,73.264c2.174-.49,3.544-2.644,3.066-4.821-.479-2.177-2.626-3.558-4.805-3.091-2.195.471-3.589,2.637-3.107,4.83.482,2.193,2.655,3.575,4.845,3.082Z"/>
        <path class="e" d="M75.713,41.022c2.597-.234,5.679.667,7.766,2.227,2.187,1.659,3.631,4.114,4.018,6.831.267,1.911.14,3.857-.374,5.717-1.403,5.105-6.867,12.786-10.018,16.939-.206.358-.127.34-.436.53-.034-.021-.071-.039-.103-.063-.928-.692-8.919-14.164-9.803-16.027-.594-1.251-1.104-2.586-1.265-3.969-.329-2.821.349-5.568,2.137-7.793,2.082-2.591,4.784-4.013,8.076-4.392ZM77.312,55.97c2.136-.415,3.537-2.477,3.137-4.616-.4-2.139-2.452-3.554-4.594-3.169-2.163.389-3.596,2.466-3.191,4.627.404,2.161,2.491,3.578,4.649,3.159Z"/>
        <path class="e" d="M84.413,84.89c4.668-.366,9.524,3.075,10.706,7.62.532,2.079.486,4.265-.132,6.32-.745,2.498-2.226,4.502-3.51,6.726-1.976,3.42-4.259,6.755-6.227,10.159-.101.15-.031.081-.236.182-.563-.534-9.019-14.77-9.607-16.068-.523-1.181-.851-2.438-.974-3.724-.262-2.634.536-5.264,2.218-7.308,2.119-2.537,4.541-3.632,7.761-3.906ZM85.686,99.17c1.993-.48,3.223-2.48,2.755-4.475-.468-1.995-2.461-3.238-4.459-2.781-2.015.461-3.27,2.473-2.797,4.485.473,2.012,2.492,3.255,4.501,2.771Z"/>
      </g>
    </g>
  </g>
</svg>