<?xml version="1.0" encoding="UTF-8"?>
<svg id="b" data-name="Layer 2" xmlns="http://www.w3.org/2000/svg" viewBox="0 0 180.192 180.192">
  <defs>
    <style>
      .d {
        fill: #8f07fd;
      }

      .e {
        fill: #f4f3e9;
      }
    </style>
  </defs>
  <g id="c" data-name="Capa 1">
    <g>
      <circle class="d" cx="90.096" cy="90.096" r="90.096"/>
      <path class="e" d="M100.141,38.029c-.088-.872-1.079-1.803-1.929-1.989-1.929-.255-4.021-.078-5.973-.134-3.431.04-6.941-.053-10.355.015-1.737.116-3.346.86-3.151,2.909.071.749.451,1.432,1.049,1.888,1.193.913,5.408.633,7.024.633l10.286-.018c2.103-.088,3.285-.978,3.048-3.305ZM100.141,38.029c-.088-.872-1.079-1.803-1.929-1.989-1.929-.255-4.021-.078-5.973-.134-3.431.04-6.941-.053-10.355.015-1.737.116-3.346.86-3.151,2.909.071.749.451,1.432,1.049,1.888,1.193.913,5.408.633,7.024.633l10.286-.018c2.103-.088,3.285-.978,3.048-3.305ZM97.667,139.782c-.267-.703-.918-1.193-1.596-1.467-1.518-.618-10.085-.406-12.205-.305-1.679.476-2.693,1.866-2.11,3.613.217.633.681,1.15,1.283,1.44,1.059.512,10.667.408,12.387.297.88-.252,1.52-.522,1.961-1.364.345-.666.557-1.485.28-2.214ZM100.141,38.029c-.088-.872-1.079-1.803-1.929-1.989-1.929-.255-4.021-.078-5.973-.134-3.431.04-6.941-.053-10.355.015-1.737.116-3.346.86-3.151,2.909.071.749.451,1.432,1.049,1.888,1.193.913,5.408.633,7.024.633l10.286-.018c2.103-.088,3.285-.978,3.048-3.305ZM97.667,139.782c-.267-.703-.918-1.193-1.596-1.467-1.518-.618-10.085-.406-12.205-.305-1.679.476-2.693,1.866-2.11,3.613.217.633.681,1.15,1.283,1.44,1.059.512,10.667.408,12.387.297.88-.252,1.52-.522,1.961-1.364.345-.666.557-1.485.28-2.214ZM100.141,38.029c-.088-.872-1.079-1.803-1.929-1.989-1.929-.255-4.021-.078-5.973-.134-3.431.04-6.941-.053-10.355.015-1.737.116-3.346.86-3.151,2.909.071.749.451,1.432,1.049,1.888,1.193.913,5.408.633,7.024.633l10.286-.018c2.103-.088,3.285-.978,3.048-3.305ZM131.038,135.055l.005-13.955v-43.99l-.003-27.715.005-7.682c0-1.755.068-4.215-.237-5.895-.54-3.03-2.279-5.716-4.823-7.448-3.89-2.657-8.015-1.848-12.45-1.962-1.276-.033-2.577.003-3.852.003l-22.481.002h-19.322c-2.037-.002-7.372-.154-9.069.048-1.956.194-3.457.59-5.143,1.634-6.124,3.787-5.665,9.313-5.67,15.558l-.005,11.146.005,36.179v35.042l-.005,10.186c-.01,5.834-.502,10.518,4.576,14.57,4.069,3.247,8.895,2.514,13.824,2.509l14.411-.013,25.358.005c4.387.003,9.805.154,14.129-.063,3.57-.61,6.149-1.835,8.418-4.765,3.005-3.883,2.327-8.731,2.33-13.395ZM53.612,118.745v-43.097l-.005-12.656c-.003-2.022-.126-4.619.116-6.553.408-3.308,3.449-6.084,6.769-6.26,1.651-.088,3.421-.048,5.11-.038l10.501.015c1.601-.003,4.125.076,5.668-.033,2.892.151,6.787.035,9.737.033l18.349-.01c3.225-.003,6.694-.156,9.878.179,2.788.292,5.62,3.676,5.794,6.424.192,3.015.111,6.192.108,9.233l-.003,17.9.003,23.893c.005,3.197.013,6.396.028,9.593.013,2.151.088,3.746-.784,5.758-2.99,4.692-5.839,4.16-10.854,4.147l-8.373-.02-28.923.002h-9.802c-1.482.003-3.54-.05-4.992.023-5.413.005-8.287-3.177-8.325-8.534ZM60.106,32.011c4.236-.214,9.033-.03,13.299-.03h24.768l14.061-.003c3.346-.003,8.804-.635,11.328,1.747.829.794,1.43,1.795,1.737,2.902.461,1.636.333,4.278.33,6.031-.018,1.969.005,3.938.071,5.907-1.755-2.226-3.59-3.404-6.379-3.865-2.501-.184-5.723-.103-8.257-.103l-13.521.005c-11.754.01-23.518-.023-35.274.008-4.405.013-5.751.822-8.733,3.888.504-6.124-2.499-15.851,6.57-16.486ZM124.808,144.174c-.27.502-.724,1.175-1.124,1.571-1.528,1.513-2.925,2.075-5.05,2.077-4.43.01-8.849-.005-13.274-.008l-26.644-.002-12.586.01c-2.309.005-4.657.071-6.951-.103-2.352-.179-5.1-2.642-5.378-4.989-.484-4.067-.272-8.524-.209-12.649,1.659,1.23,3.525,2.541,5.65,2.683,3.371.224,7.095.121,10.488.118l20.631-.003,19.214.003c3.109.003,6.242.056,9.351-.061,2.733-.103,4.616-1.127,6.711-2.798-.098,3.782.567,10.965-.829,14.151ZM79.782,40.719c1.193.913,5.408.633,7.024.633l10.286-.018c2.103-.088,3.285-.978,3.048-3.305-.088-.872-1.079-1.803-1.929-1.989-1.929-.255-4.021-.078-5.973-.134-3.431.04-6.941-.053-10.355.015-1.737.116-3.346.86-3.151,2.909.071.749.451,1.432,1.049,1.888ZM96.071,138.315c-1.518-.618-10.085-.406-12.205-.305-1.679.476-2.693,1.866-2.11,3.613.217.633.681,1.15,1.283,1.44,1.059.512,10.667.408,12.387.297.88-.252,1.52-.522,1.961-1.364.345-.666.557-1.485.28-2.214-.267-.703-.918-1.193-1.596-1.467ZM100.141,38.029c-.088-.872-1.079-1.803-1.929-1.989-1.929-.255-4.021-.078-5.973-.134-3.431.04-6.941-.053-10.355.015-1.737.116-3.346.86-3.151,2.909.071.749.451,1.432,1.049,1.888,1.193.913,5.408.633,7.024.633l10.286-.018c2.103-.088,3.285-.978,3.048-3.305ZM100.141,38.029c-.088-.872-1.079-1.803-1.929-1.989-1.929-.255-4.021-.078-5.973-.134-3.431.04-6.941-.053-10.355.015-1.737.116-3.346.86-3.151,2.909.071.749.451,1.432,1.049,1.888,1.193.913,5.408.633,7.024.633l10.286-.018c2.103-.088,3.285-.978,3.048-3.305ZM100.141,38.029c-.088-.872-1.079-1.803-1.929-1.989-1.929-.255-4.021-.078-5.973-.134-3.431.04-6.941-.053-10.355.015-1.737.116-3.346.86-3.151,2.909.071.749.451,1.432,1.049,1.888,1.193.913,5.408.633,7.024.633l10.286-.018c2.103-.088,3.285-.978,3.048-3.305ZM100.141,38.029c-.088-.872-1.079-1.803-1.929-1.989-1.929-.255-4.021-.078-5.973-.134-3.431.04-6.941-.053-10.355.015-1.737.116-3.346.86-3.151,2.909.071.749.451,1.432,1.049,1.888,1.193.913,5.408.633,7.024.633l10.286-.018c2.103-.088,3.285-.978,3.048-3.305Z"/>
      <path class="e" d="M116.609,70.676c-2.173,3.416-4.798,6.729-7.087,10.092-1.687,2.478-3.482,5.09-5.388,7.387-1.064,1.281-3.426,1.215-4.707.224-1.949-1.513-3.567-3.436-5.347-5.146-1.46-1.508-3.648-3.525-4.949-5.052l-8.436,8.837c-1.414,1.49-2.849,3.157-4.437,4.465-.411.338-1.215.499-1.727.502-1.48.04-3.035-1.901-4.135-2.892-2.443,2.524-4.994,5.564-7.642,7.788-2.198,1.846-5.789-.459-4.147-3.651.852-1.314,8.973-9.596,10.14-10.251,1.795-.774,2.95-.141,4.299,1.185.436.429.958.857,1.319,1.349.318-.434,1.402-1.535,1.825-1.989,1.303-1.399,2.62-2.788,3.951-4.162,1.286-1.344,6.041-6.53,7.332-7.372.726-.454,1.601-.605,2.438-.424,2.519.545,10.957,10.897,11.708,10.71.24-.766,8.882-12.787,9.785-13.829.202-.29.267-.393.429-.708-.229-1.19-1.989-.862-.943-3.681.313-1.094,3.111-1.984,4.12-2.307,6.565-2.725,5.189.62,5.834,5.166.487,3.426-1.127,7.001-4.233,3.759Z"/>
      <path class="e" d="M116.609,70.676c-2.173,3.416-4.798,6.729-7.087,10.092-1.687,2.478-3.482,5.09-5.388,7.387-1.064,1.281-3.426,1.215-4.707.224-1.949-1.513-3.567-3.436-5.347-5.146-1.46-1.508-3.648-3.525-4.949-5.052l-8.436,8.837c-1.414,1.49-2.849,3.157-4.437,4.465-.411.338-1.215.499-1.727.502-1.48.04-3.035-1.901-4.135-2.892-2.443,2.524-4.994,5.564-7.642,7.788-2.198,1.846-5.789-.459-4.147-3.651.222.439-.31,4.183,2.098,3.893,3.396-.411,6.49-5.915,9.122-8.012,1.316-1.046,3.146,2.857,4.891,2.478.398.008.993-.108,1.303-.401,4.523-4.289,8.726-9.175,13.135-13.569,1.924,2.166,4.047,4.188,6.086,6.245,1.329,1.341,2.715,3.013,4.266,4.082,1.107.764,2.39,1.049,3.648.401,1.488-.769,3.152-3.731,4.13-5.118,1.15-1.624,8.532-12.467,9.25-12.762.454-.187,1.692,1.051,2.617.832.454-.108.938-.454,1.16-.865.487-.905,0-7.435-.446-8.517-.759-1.843-3.663.287-4.858-.166,6.565-2.725,5.189.62,5.834,5.166.487,3.426-1.127,7.001-4.233,3.759Z"/>
      <path class="e" d="M101.731,82.478l-.227.189c-1.094-.192-9.094-9.399-10.871-10.365-1.495-.814-2.176.131-3.162-.313.726-.454,1.601-.605,2.438-.424,2.519.545,10.957,10.897,11.708,10.71l.113.202Z"/>
      <path class="e" d="M74.364,85.513c-.076.073-.025.035-.184.088-.361.118-2.499-2.103-3.333-2.531-.797.028-1.482.204-2.1-.091,1.795-.774,2.95-.141,4.299,1.185.436.429.958.857,1.319,1.349Z"/>
      <path class="e" d="M112.759,67.285c-.381.396-.91,1.097-1.356,1.162.202-.29.267-.393.429-.708-.229-1.19-1.989-.862-.943-3.681.726,1.349-.908,2.11,1.871,3.227Z"/>
      <path class="e" d="M119.944,117.817c-1.487,1.472-5.032.731-6.979.865-3.726.255-2.609-4.543-2.655-6.885-.045-2.34-.035-4.74-.035-7.092l-.028-10.35c0-1.818-.023-3.646.053-5.458.043-1.044.171-1.656,1.137-2.188.996-.469,3.898-.295,5.108-.27,3.557-.04,3.847.605,3.86,3.968l.003,14.394c.003,2.665.27,10.869-.464,13.017Z"/>
      <path class="e" d="M119.944,117.817c-1.487,1.472-5.032.731-6.979.865-3.726.255-2.609-4.543-2.655-6.885-.045-2.34-.035-4.74-.035-7.092l-.028-10.35c0-1.818-.023-3.646.053-5.458.043-1.044.171-1.656,1.137-2.188-.282.676-.572.739-.656,1.664-.343,3.847-.126,7.806-.131,11.678l-.03,10.344c-.003,1.588-.285,5.7.487,7.259.081.161.998.658,1.452.613,1.924-.194,5.834.797,7.107-.867.421-1.669.297-4.853.295-6.593l-.005-9.371v-9.026c-.005-1.059.209-4.193-.386-5.07-.461-.681-2.08-.656-2.889-.691l-.136-.209c3.557-.04,3.847.605,3.86,3.968l.003,14.394c.003,2.665.27,10.869-.464,13.017Z"/>
      <path class="e" d="M94.559,116.206c.008.308-.088,1.026-.247,1.331-.353.676-.842.88-1.508,1.127-1.714.073-5.237.366-6.81-.204-.567-.204-.93-.537-1.155-1.099-.35-.89-.368-22.116.023-22.981.31-.686.824-.988,1.503-1.245,1.374-.05,5.695-.174,6.817.189.557.176,1.008.59,1.23,1.129.403.961.103,19.222.146,21.753Z"/>
      <path class="e" d="M87.399,93.534c1.355.055,6.68-.57,6.759,1.336.097,2.306.055,4.892.054,7.222l-.008,9.136c-.001,1.748.029,3.499-.074,5.244-.074,1.244-.755,1.69-1.912,1.842-1.721.018-5.409.294-6.702-.499-.649-1.278-.509-3.999-.508-5.484l.013-6.651c.002-3.477-.093-7.038.036-10.513.053-1.43,1.198-1.557,2.341-1.632Z"/>
      <path class="e" d="M81.325,116.564c-.035,1.354-.945,1.994-2.216,2.133-1.835.025-7.523.807-7.536-1.977-.02-5.532-.184-11.139.063-16.66.025-.54.794-1.003,1.182-1.256l1.525-.098c1.551-.01,4.775-.24,6.079.386.393.222.85.905.87,1.346.252,5.347.179,10.773.033,16.126Z"/>
      <path class="e" d="M72.962,99.175c2.005-.13,4.15-.073,6.159-.032,1.56.032,1.821,1.025,1.845,2.415.085,5.124.266,10.329-.085,15.436-.036.519-.634.916-1.034,1.146-.19.039-.382.072-.575.097-1.384.188-5.813.345-6.888-.494-.208-.475-.456-1.456-.454-2.079.012-5.063-.218-10.361.068-15.388.028-.49.604-.881.966-1.102Z"/>
      <path class="e" d="M107.313,115.649c.013,1.611-.171,2.201-1.553,3.01-1.208.038-7.009.376-7.785-.497-1.137-1.281-.623-5.11-.741-6.81-.068-2.814.045-5.337.035-8.123-.005-.986.053-1.588.829-2.234.774-.691,2.395-.484,3.416-.451.867-.018,1.866.005,2.642-.043,1.203-.076,3.015.207,3.083,1.788.189,4.402.045,8.943.073,13.36Z"/>
      <path class="e" d="M107.313,115.649c.013,1.611-.171,2.201-1.553,3.01-1.208.038-7.009.376-7.785-.497-1.137-1.281-.623-5.11-.741-6.81-.068-2.814.045-5.337.035-8.123-.005-.986.053-1.588.829-2.234.101.373-.298.898-.323,1.326-.267,4.599-.144,9.394-.073,13.998.035,2.191,1.833,2.037,3.459,1.989,1.699-.053,4.22.431,5.471-.887.192-.658.265-1.321.3-2.004.103-1.994.229-12.371-.164-13.703-.529-1.785-4.059-.424-5.254-1.17.867-.018,1.866.005,2.642-.043,1.203-.076,3.015.207,3.083,1.788.189,4.402.045,8.943.073,13.36Z"/>
      <path class="e" d="M68.379,117.424c-.625.716-1.359,1.364-2.413,1.288-4.306-.308-8.055,1.596-7.47-4.707.141-1.543-.482-6.28.734-7.266.9-.988,4.258-.681,5.537-.64,3.762-.053,3.936,1.354,3.852,4.788-.048,1.992.166,4.634-.24,6.537Z"/>
      <path class="e" d="M68.379,117.424c-.625.716-1.359,1.364-2.413,1.288-4.306-.308-8.055,1.596-7.47-4.707.141-1.543-.482-6.28.734-7.266.194.464-.358,1.21-.313,1.654.151,1.5-.557,8.754.711,9.53,1.077.661,6.434.421,7.773.091.242-.229.502-.482.688-.759.58-.86.378-7.891.126-9.089-.57-2.695-2.317-1.215-3.31-1.954-.048-.035-.093-.076-.139-.114,3.762-.053,3.936,1.354,3.852,4.788-.048,1.992.166,4.634-.24,6.537Z"/>
      <path class="e" d="M97.387,141.996c-.441.842-1.082,1.112-1.961,1.364-1.719.111-11.328.214-12.387-.297-.603-.29-1.066-.807-1.283-1.44-.582-1.747.431-3.136,2.11-3.613,2.12-.101,10.687-.313,12.205.305.678.275,1.329.764,1.596,1.467.277.729.066,1.548-.28,2.214Z"/>
      <path class="e" d="M97.387,141.996c-.441.842-1.082,1.112-1.961,1.364-1.719.111-11.328.214-12.387-.297-.603-.29-1.066-.807-1.283-1.44-.582-1.747.431-3.136,2.11-3.613,2.12-.101,10.687-.313,12.205.305.678.275,1.329.764,1.596,1.467.277.729.066,1.548-.28,2.214Z"/>
      <path class="e" d="M97.092,41.335l-10.286.018c-1.616,0-5.832.28-7.024-.633-.598-.456-.978-1.14-1.049-1.888-.194-2.05,1.414-2.793,3.151-2.909,3.414-.068,6.923.025,10.355-.015,1.951.055,4.044-.121,5.973.134.85.187,1.84,1.117,1.929,1.989.237,2.327-.945,3.217-3.048,3.305Z"/>
      <path class="e" d="M97.092,41.335l-10.286.018c-1.616,0-5.832.28-7.024-.633-.598-.456-.978-1.14-1.049-1.888-.194-2.05,1.414-2.793,3.151-2.909,3.414-.068,6.923.025,10.355-.015,1.951.055,4.044-.121,5.973.134.85.187,1.84,1.117,1.929,1.989.237,2.327-.945,3.217-3.048,3.305Z"/>
    </g>
  </g>
</svg>