<?xml version="1.0" encoding="UTF-8"?>
<svg id="b" data-name="Layer 2" xmlns="http://www.w3.org/2000/svg" viewBox="0 0 180.126 180.126">
  <defs>
    <style>
      .d {
        fill: #8f07fd;
      }

      .e {
        fill: #f4f3e9;
      }
    </style>
  </defs>
  <g id="c" data-name="Capa 1">
    <g>
      <path class="d" d="M87.468.038c49.716-1.433,91.181,37.706,92.62,87.422,1.437,49.715-37.697,91.185-87.414,92.628C42.952,181.53,1.476,142.389.038,92.666-1.399,42.943,37.746,1.471,87.468.038Z"/>
      <path class="e" d="M52.383,62.794c2.216.116,4.434.185,6.652.206,5.438.023,4.636-.605,8.342,3.369l4.35,4.656c1.175,1.256,2.35,2.512,3.531,3.761.966,1.021,1.988,1.977,2.846,3.089-1.885,2.305-4.151,4.404-6.209,6.564-2.677,2.809-5.284,5.753-8.065,8.455-.34.331-.789.789-1.239.949-1.816.643-9.068.313-11.385.263,2.457-2.628,4.938-5.235,7.444-7.818.751-.785,2.932-2.975,3.461-3.783l-9.38.014-24.683.004-8.03.012c-1.464.002-2.954.031-4.417-.032-1.367-.059-1.883-.773-1.924-2.087-.039-1.227-.011-2.498-.011-3.731.084-1.391-.418-3.696,1.64-3.792,1.911-.09,3.817-.039,5.719-.039h10.621c9.849-.002,20.174-.15,30.003.03-2.781-3.267-6.314-6.945-9.267-10.091Z"/>
      <path class="e" d="M64.22,98.939c2.216.116,4.434.185,6.652.206,5.438.023,4.636-.605,8.342,3.369l4.35,4.656c1.175,1.256,2.35,2.512,3.531,3.761.966,1.021,1.988,1.977,2.846,3.089-1.885,2.305-4.151,4.404-6.209,6.564-2.677,2.809-5.284,5.753-8.065,8.455-.34.331-.789.789-1.239.949-1.816.643-9.068.313-11.385.263,2.457-2.628,4.938-5.235,7.444-7.818.751-.785,2.932-2.975,3.461-3.783l-9.38.014-24.683.004-8.03.012c-1.464.002-2.954.031-4.417-.032-1.367-.059-1.883-.773-1.924-2.087-.039-1.227-.011-2.498-.011-3.731.084-1.391-.418-3.696,1.64-3.792,1.911-.09,3.817-.039,5.719-.039h10.621c9.849-.002,20.174-.15,30.003.03-2.781-3.267-6.314-6.945-9.267-10.091Z"/>
      <path class="e" d="M102.395,56.275c5.41-.417,4.777,4.199,4.734,7.855-.016,1.335-.003,2.7-.004,4.036l-.008,10.998c0,.97-.074,4.642.277,5.217.8,1.312,4.644,4.283,5.936,5.37l9.871,8.333c1.111.931,4.175,3.053,4.442,4.437.552,2.847-1.576,5.713-4.341,6.454-.934.168-1.946.006-2.824-.333-.899-.347-1.783-1.017-2.55-1.613-2.885-2.291-5.522-4.503-8.367-6.897-1.319-1.11-11.201-9.009-11.365-9.881-.308-1.636-.078-8.578-.074-10.565l.003-11.778c-.006-2.217-.025-4.453-.002-6.67.064-.687.018-1.586.322-2.214.812-1.678,2.203-2.42,3.95-2.749Z"/>
      <path class="e" d="M102.692,140.189c-4.991,0-9.935-.688-14.693-2.046l2.784-9.757c3.853,1.099,7.859,1.657,11.909,1.657,23.876,0,43.3-19.425,43.3-43.3s-19.425-43.3-43.3-43.3c-11.01,0-21.502,4.136-29.544,11.645l-6.924-7.416c9.928-9.27,22.879-14.375,36.469-14.375,14.276,0,27.698,5.559,37.792,15.654,10.095,10.095,15.654,23.516,15.654,37.792s-5.56,27.698-15.654,37.792c-10.095,10.095-23.516,15.654-37.792,15.654Z"/>
    </g>
  </g>
</svg>