<?xml version="1.0" encoding="UTF-8"?>
<svg id="b" data-name="Layer 2" xmlns="http://www.w3.org/2000/svg" viewBox="0 0 178.667 180.092">
  <defs>
    <style>
      .d {
        fill: #8f07fd;
      }

      .e {
        fill: #f4f3e9;
      }
    </style>
  </defs>
  <g id="c" data-name="Capa 1">
    <g>
      <path class="d" d="M84.92.114c2.193-.299,5.28.101,7.558-.038.996-.061,2.522.112,3.54.184,19.665,1.321,38.325,9.171,53.02,22.304,17.592,16.003,28.185,38.283,29.492,62.029,1.324,24.215-7.077,47.957-23.337,65.95-15.763,17.629-37.919,28.227-61.537,29.434-.113.009-.226.017-.339.025-3.01.199-6.407.034-9.415-.166-19.362-1.296-37.769-8.885-52.418-21.611C13.254,142.325,2.017,119.887.204,95.765c-1.621-24.164,6.464-47.976,22.462-66.157,2.867-3.221,5.973-6.219,9.294-8.97C47.261,7.786,65.08,1.38,84.92.114Z"/>
      <path class="e" d="M132.817,59.122l-1.91-18.267-1.108-10.526c-.18-1.72-.336-3.437-.579-5.15-.186-1.334-1.394-2.053-2.681-1.936-4.361.416-8.832.961-13.21,1.427l-38.214,4.102-20.502,2.199c-3.22.346-6.45.639-9.664,1.031-1.71.21-2.255,1.324-2.136,2.944.12,1.647.333,3.293.512,4.934l1.045,9.621,3.094,28.736c.24,2.109.316,3.3,2.748,3.653,5.729-.409,11.856-1.244,17.602-1.863l32.688-3.516,20.799-2.229,6.876-.742c1.188-.13,2.435-.276,3.556-.419.918-.116,2.109-1.058,2.119-1.976.037-3.669-.659-8.47-1.035-12.023ZM116.57,66.211c-.186.885-.243,1.683-.296,2.585-1.617.236-3.603.389-5.25.569l-10.343,1.104-22.681,2.395c-4.291.456-8.723.868-12.997,1.397l-.24-.003c-.283-.18-.689-1.427-.905-1.896-.715-1.567-1.69-3.001-2.884-4.242-2.512-2.592-5.489-3.869-9.082-3.919-.11-.722-.18-1.544-.246-2.272-.406-4.597-1.025-9.215-1.411-13.809,3.919-.765,6.776-2.735,8.776-6.251,1.094-1.926,1.354-3.639,1.633-5.782,6.297-.486,12.592-1.058,18.872-1.71,10.749-1.045,21.487-2.176,32.216-3.397l.442-.077c.329.17.948,2.006,1.201,2.485,2.468,4.661,6.181,6.767,11.351,6.939.303,1.747.519,4.311.702,6.101l1.028,10.106c-4.947.576-8.889,4.947-9.887,9.674ZM87.558,37.265c-8.516.512-14.993,7.854-14.438,16.371.552,8.513,7.928,14.953,16.441,14.358,8.453-.592,14.84-7.904,14.288-16.361-.549-8.457-7.831-14.877-16.291-14.368ZM94.604,58.982c-.845,1.49-2.329,2.112-3.889,2.498.063.788.116,1.58.166,2.369-.852.113-1.71.21-2.568.289-.153-.04-.06-.003-.256-.146-.156-.652-.173-1.367-.22-2.043-2.342-.363-3.367-.512-5.22-1.969.572-.908,1.154-1.816,1.74-2.721,1.73,1.198,3.753,1.966,5.855,1.171.768-.289,1.683-1.56,1.168-2.339-1.118-1.57-3.633-1.803-5.436-2.399-3.067-1.015-4.89-3.44-3.659-6.743.639-1.707,2.136-2.445,3.772-3.117-.093-.818-.17-1.66-.256-2.482.699-.11,1.411-.156,2.116-.216.449-.013.436-.09.742.106.323.749.24,1.467.256,2.309,1.963.236,3.244.752,4.87,1.886-.665.855-1.257,1.843-1.843,2.765-1.444-1.011-2.781-1.72-4.641-1.377-1.061.186-1.826,1.218-1.494,2.285.303.928,1.414,1.304,2.252,1.574,2.488.795,5.931,1.254,6.923,4.105.439,1.261.276,3.034-.379,4.195Z"/>
      <path class="d" d="M103.849,51.633c-.549-8.457-7.831-14.877-16.291-14.368-8.516.512-14.993,7.854-14.438,16.371.552,8.513,7.928,14.953,16.441,14.358,8.453-.592,14.84-7.904,14.288-16.361ZM94.604,58.982c-.845,1.49-2.329,2.112-3.889,2.498.063.788.116,1.58.166,2.369-.852.113-1.71.21-2.568.289-.153-.04-.06-.003-.256-.146-.156-.652-.173-1.367-.22-2.043-2.342-.363-3.367-.512-5.22-1.969.572-.908,1.154-1.816,1.74-2.721,1.73,1.198,3.753,1.966,5.855,1.171.768-.289,1.683-1.56,1.168-2.339-1.118-1.57-3.633-1.803-5.436-2.399-3.067-1.015-4.89-3.44-3.659-6.743.639-1.707,2.136-2.445,3.772-3.117-.093-.818-.17-1.66-.256-2.482.699-.11,1.411-.156,2.116-.216.449-.013.436-.09.742.106.323.749.24,1.467.256,2.309,1.963.236,3.244.752,4.87,1.886-.665.855-1.257,1.843-1.843,2.765-1.444-1.011-2.781-1.72-4.641-1.377-1.061.186-1.826,1.218-1.494,2.285.303.928,1.414,1.304,2.252,1.574,2.488.795,5.931,1.254,6.923,4.105.439,1.261.276,3.034-.379,4.195Z"/>
      <path class="e" d="M103.849,51.633c-.549-8.457-7.831-14.877-16.291-14.368-8.516.512-14.993,7.854-14.438,16.371.552,8.513,7.928,14.953,16.441,14.358,8.453-.592,14.84-7.904,14.288-16.361ZM94.604,58.982c-.845,1.49-2.329,2.112-3.889,2.498.063.788.116,1.58.166,2.369-.852.113-1.71.21-2.568.289-.153-.04-.06-.003-.256-.146-.156-.652-.173-1.367-.22-2.043-2.342-.363-3.367-.512-5.22-1.969.572-.908,1.154-1.816,1.74-2.721,1.73,1.198,3.753,1.966,5.855,1.171.768-.289,1.683-1.56,1.168-2.339-1.118-1.57-3.633-1.803-5.436-2.399-3.067-1.015-4.89-3.44-3.659-6.743.639-1.707,2.136-2.445,3.772-3.117-.093-.818-.17-1.66-.256-2.482.699-.11,1.411-.156,2.116-.216.449-.013.436-.09.742.106.323.749.24,1.467.256,2.309,1.963.236,3.244.752,4.87,1.886-.665.855-1.257,1.843-1.843,2.765-1.444-1.011-2.781-1.72-4.641-1.377-1.061.186-1.826,1.218-1.494,2.285.303.928,1.414,1.304,2.252,1.574,2.488.795,5.931,1.254,6.923,4.105.439,1.261.276,3.034-.379,4.195Z"/>
      <path class="e" d="M118.172,121.859c.927-.032,3.815,1.076,5.314.967,1.237-.089,2.192-.047,3.519-.395.514-.135,2.183-.543,2.59-.525,4.262.188,9.178,2.231,12.247,5.109,2.566,2.405,4.586,6.086,4.539,9.559-.117,2.591.632,6.267-1.378,8.298-1.87,1.889-5.233,1.501-7.728,1.501l-6.445-.007h-16.637c-2.794.001-5.679.094-8.43-.121-2.436-.223-4.071-2.061-4.208-4.441-.28-4.886-.275-9.073,3.007-13.072,3.472-4.23,8.283-6.259,13.609-6.873Z"/>
      <path class="e" d="M45.964,121.853c.712-.095,2.67.485,3.495.652.848.17,1.708.274,2.573.312,1.015.038,2.864-.115,3.823-.394,2.154-.628,2.798-.664,4.991-.183,6.961,1.524,13.831,6.884,14.004,14.518.031,1.382.051,2.747.012,4.127-.178,5.787-4.307,5.495-8.58,5.49l-6.036-.01-16.879.004c-2.87,0-5.951.129-8.764-.097-4.774-.584-4.316-3.853-4.511-7.237-.561-9.728,6.44-15.788,15.871-17.182Z"/>
      <path class="e" d="M122.283,92.849c7.098-.941,13.614,4.05,14.554,11.148.941,7.098-4.05,13.614-11.147,14.554-7.099.941-13.615-4.05-14.555-11.148-.941-7.098,4.051-13.614,11.148-14.554Z"/>
      <path class="e" d="M52.514,92.792c7.114-.062,12.938,5.641,13.024,12.755.086,7.114-5.598,12.957-12.711,13.067-7.147.11-13.024-5.607-13.11-12.754-.087-7.148,5.65-13.005,12.798-13.068Z"/>
      <path class="e" d="M37.617,54.627c.816-.033,1.782.458,1.798,1.364.04,2.337-.492,4.664-.716,7.003-.204,2.128-.481,4.32-.72,6.447-.661,3.439-4.68-1.266-5.492-2.042-1.401,2.427-2.682,6.167-3.155,8.88-1.122,6.257.069,12.709,3.349,18.154.867,1.414,1.757,2.433,2.767,3.724.308.394.302.775.192,1.236-.672.807-1.948-.302-2.616-.784-4.066-3.213-7.059-7.585-8.582-12.537-1.727-5.586-1.263-12.494.925-17.879.743-1.83,1.432-3.138,2.357-4.874-1.124-.539-3.287-1.494-3.675-2.728-.127-.395-.078-.825.134-1.181.802-1.336,8.429-3.061,10.286-3.826.667-.275,2.424-.77,3.147-.957Z"/>
      <path class="e" d="M138.791,54.791c1.096.072,2.377,1.06,3.218,1.726,3.303,2.631,5.864,6.079,7.427,10.003,2.339,5.996,2.272,12.755.213,18.833-.691,2.039-1.642,3.739-2.502,5.689,1.008.622,3.696,1.373,4.151,2.39.693,1.553-.956,2.194-2.157,2.619-2.493.883-4.964,1.918-7.476,2.785-.547.074-.977.178-1.46-.096-.569-.734-1.289-1.976-1.771-2.797-.496-.969-2.403-3.134-2.258-4.231.208-1.597-.384-6.837.503-7.932,1.461-1.805,4.242,2.863,5.231,3.841,4.657-9.019,4.634-20.349-1.255-28.79-.673-.965-1.564-1.828-2.087-2.882-.168-.338.077-.849.221-1.158Z"/>
      <path class="e" d="M95.246,105.592c.82.041,1.316.298,1.958.815,1.251,1.007,2.35,2.38,3.49,3.523,1.595,1.599,3.511,3.208,4.919,4.963.26.324.574.76.598,1.19.021.369-.083.705-.336.98-.993,1.078-11.617,6.415-12.97,6.454-.551.015-1.099-.219-1.486-.608-.309-.311-.483-.706-.461-1.147.072-1.428,2.357-3.107,3.358-4.014-2.892-.857-7.875-.793-10.893-.605-3.742.42-7.512,1.188-10.986,2.676-.923.396-2.322,1.192-3.264.845-.156-.156-.307-.238-.252-.52.12-.615,1.014-1.394,1.499-1.768,5.76-4.452,12.852-7.041,20.138-7.227,1.543-.039,3.628.254,5.164.433-.83-1.706-4.68-5.071-.476-5.989Z"/>
    </g>
  </g>
</svg>