<?xml version="1.0" encoding="UTF-8"?>
<svg id="b" data-name="Layer 2" xmlns="http://www.w3.org/2000/svg" viewBox="0 0 177.538 177.538">
  <defs>
    <style>
      .d {
        fill: #8f07fd;
      }

      .e {
        fill: #f4f3e9;
      }
    </style>
  </defs>
  <g id="c" data-name="Capa 1">
    <g>
      <circle class="d" cx="88.769" cy="88.769" r="88.769"/>
      <g>
        <path class="e" d="M88.017,23.055c.874-.028,1.567-.051,2.377.365,1.567.805,3.098,2.005,4.601,2.971,2.609,1.653,5.265,3.231,7.965,4.732,6.369,3.51,13.112,6.295,20.1,8.304,2.619.783,5.273,1.442,7.953,1.977,2.09.429,4.191.804,6.3,1.125,1.419.211,2.804.376,4.229.673,2.976.621,3.028,2.9,3.051,5.449.045,4.811-.043,9.666.037,14.479.087,5.388.131,10.778.134,16.167.01,3.871.074,8.052-.243,11.891-.905,10.784-4.694,21.126-10.969,29.941-9.035,12.895-21.632,22.485-35.531,29.667-1.941,1.004-6.573,3.334-8.633,3.697-1.882.065-5.361-1.585-7.129-2.452-20.073-9.85-38.374-24.832-46.012-46.403-1.633-4.552-2.681-9.292-3.119-14.107-.412-4.108-.373-9.2-.355-13.351l.065-14.033.054-10.979c.003-2.051-.025-4.094.054-6.144.157-4.074,3.626-3.904,6.685-4.37,1.751-.266,3.496-.572,5.233-.917,11.42-2.276,22.243-6.098,32.265-12.063,2.567-1.528,5.096-3.12,7.575-4.786,1.078-.724,2.07-1.423,3.313-1.834ZM43.97,96.601c2.106,8.832,5.174,15.865,10.831,23.065.873,1.117,1.791,2.198,2.751,3.241.538.587,1.572,1.635,2.024,2.231,7.092,7.23,15.356,12.611,24.339,17.182,5.551,2.824,4.277,2.7,9.748.023,20.564-10.061,38.694-26.984,40.946-50.942.476-5.072.293-10.181.293-15.273l-.005-24.124c-1.328-.121-4.123-.785-5.434-1.09-8.702-2.059-17.168-5.01-25.265-8.806-3.049-1.426-6.034-2.984-8.948-4.67-1.726-1.008-3.397-2.107-5.138-3.089-1.238-.699-1.853-.472-3.029.19-1.53.861-3.021,1.803-4.551,2.673-1.614.91-3.241,1.798-4.88,2.663-10.931,5.788-22.95,9.618-35.022,12.126l-.002,20.867c0,5.002-.115,10.023.185,15.012.178,2.963.628,5.803,1.157,8.719Z"/>
        <path class="e" d="M86.103,50.836c.799-.048,1.6-.072,2.4-.074,5.755-.047,10.796,1.626,14.95,5.729,6.11,6.035,5.568,12.526,5.557,20.363,2.243.069,4.185-.123,5.922,1.601,1.57,1.556,1.901,3.342,1.92,5.445l.013,16.98c.001,1.11-.003,2.234.001,3.341.02,5.151.438,10.058-3.498,14.043-3.644,3.69-8.109,3.155-12.863,3.154l-8.595-.007-13.502.006c-4.702.001-10.082.723-13.695-2.852-3.407-3.37-3.879-7.415-3.913-11.988-.046-6.435.006-12.869-.014-19.304.003-2.948-.309-6.475,1.965-8.738,1.782-1.774,3.727-1.636,6.009-1.633,0-6.79-.542-12.954,3.949-18.65,3.526-4.472,7.846-6.697,13.394-7.415ZM77.788,76.815l12.727-.029c3.134.007,6.341-.021,9.47.033.021-4.624.37-10.059-3.156-13.547-2.261-2.236-5.186-2.992-8.281-2.986-.311-.001-.622.005-.933.019-2.86.429-5.176,1.072-7.192,3.333-3.204,3.591-2.671,8.69-2.635,13.177ZM85.165,99.874c-.392,2.838-.655,8.126-.69,11.034l5.037-.008,3.774.007c-.324-3.601-.349-7.503-.735-11.004,1.584-1.467,2.516-2.767,2.584-5.051.057-1.725-.562-3.405-1.723-4.682-1.139-1.232-3.26-2.167-4.974-1.987-6.239.628-7.777,7.939-3.273,11.692Z"/>
      </g>
    </g>
  </g>
</svg>