<?xml version="1.0" encoding="UTF-8"?>
<svg id="b" data-name="Layer 2" xmlns="http://www.w3.org/2000/svg" viewBox="0 0 143.117 176.92">
  <defs>
    <style>
      .d {
        fill: #040633;
      }
    </style>
  </defs>
  <g id="c" data-name="Layer 1">
    <g>
      <path class="d" d="M39.764,144.599c4.594-10.473,7.705-21.313,3.308-32.531-1.505-3.844-3.848-7.094-6.877-9.875,4.133-5.162,8.335-10.254,12.387-15.482,1.75-2.261,3.877-4.638,5.169-7.18.991-1.952,1.613-4.189,1.365-6.388-.257-2.274-1.513-4.348-3.304-5.751-1.733-1.359-4.04-2.071-6.242-1.79-2.48.319-4.067,2.025-5.74,3.704-.821.825-1.646,1.644-2.403,2.529l-.018-41.831c4.051.095,8.112.044,12.163.044h20.091l13.159-.004c2.37-.002,4.802.104,7.16-.062,1.814-1.341,4.012-3.821,5.693-5.485-1.688-1.963-3.343-3.952-4.968-5.968-1.494-1.819-3.047-4.151-5.045-5.432-1.279-.819-2.777-1.213-4.279-1.312-2.699-.175-5.479-.053-8.185-.051l-15.294.007-11.128-.007c-1.794,0-3.733-.157-5.507.044-2.965.195-5.598,1.617-7.539,3.857-1.507,1.724-2.485,3.846-2.815,6.112-.361,2.328-.175,4.868-.173,7.224l.018,12.301-.004,24.957c0,4.182-.1,8.386.004,12.564l-8.486,8.494c-1.945,1.947-6.147,5.696-7.238,7.97-1.193,2.492-1.089,6.074-1.303,8.815l-1.162,14.057c-.334,4.118-.474,10.4-1.903,14.19-.777,2.062-6.302,8.172-7.968,10.181-.77.927-1.671,1.872-2.213,2.954-.336.664-.489,1.37-.491,2.113-.009,1.768,1.168,3.184,2.37,4.354l16.038,15.372c1.863,1.819,3.737,3.625,5.622,5.419,1.082,1.042,2.149,2.244,3.396,3.087,1.075.726,2.62,1.155,3.919,1.12,1.235-.031,2.474-.407,3.536-1.033,1.737-1.027,3.246-2.75,4.689-4.151,1.898-1.87,3.826-3.713,5.775-5.53.695-.642,1.496-1.542,2.303-2.027.916-.551,2.491-.746,3.529-.998,4.016-.98,11.289-2.319,14.579-4.49,2.204-1.454,4.116-3.485,6.03-5.297,3.087-2.949,6.196-5.877,9.331-8.78l-16.062-.011c-8.424.002-16.872.144-25.291-.002ZM58.267,20.914c.177-.642.686-1.007,1.244-1.303,2.664-.155,5.414-.027,8.087-.031,1.733-.002,4.184-.219,5.842.084.445.082.87.327,1.122.706.272.405.383,1.011.274,1.487-.159.728-.746,1.106-1.339,1.474-2.56.144-5.187.024-7.753.031-1.679.004-4.682.235-6.244-.102-.434-.095-.774-.35-1.007-.726-.279-.458-.367-1.102-.226-1.62Z"/>
      <path class="d" d="M143.053,48.336c-1.018-14.894-13.911-26.143-28.805-25.13-14.896,1.013-26.152,13.911-25.136,28.809,1.018,14.896,13.92,26.147,28.816,25.13,14.894-1.018,26.141-13.916,25.125-28.809ZM125.867,61.554c-1.764,2.604-4.313,3.81-7.313,4.41-.467,1.27-.905,2.089-2.16,2.722-.513.049-1.002.051-1.491-.139-1.188-.46-1.671-1.571-2.155-2.651-1.241-.272-2.419-.586-3.545-1.19-1.918-1.027-3.943-3.018-4.527-5.173-.248-.914-.168-1.885.321-2.704.336-.562.794-1.133,1.469-1.274,2.277-.478,4.359,3.049,6.213,4.138,1.551.909,3.72,1.403,5.479.896,1.082-.312,2.124-1.084,2.631-2.104.418-.847.465-1.901.159-2.792-.92-2.682-4.332-2.85-6.662-3.344-1.511-.319-3.029-.684-4.417-1.378-1.958-.978-3.436-2.54-4.109-4.64-.708-2.221-.524-4.979.553-7.054,1.334-2.567,3.671-4.111,6.368-4.961.073-.19.146-.381.221-.569.465-1.131.976-1.719,2.107-2.191.491-.04.965-.033,1.429.148,1.113.432,1.617,1.52,2.045,2.549,1.755.454,3.392.954,4.877,2.04,1.476,1.082,3.173,3.042,3.421,4.896.104.794.027,1.531-.482,2.18-.378.478-.934.785-1.54.852-2.16.25-3.786-3.003-5.352-4.142-1.133-.825-2.509-1.228-3.901-.987-1.241.217-2.485.885-3.197,1.945-.595.883-.808,2.033-.591,3.076.668,3.199,5.33,3.368,7.864,3.948,1.514.345,2.976.783,4.295,1.624,1.799,1.148,3.003,2.788,3.441,4.89.491,2.368-.104,4.99-1.449,6.981Z"/>
      <path class="d" d="M111.435,84.411l-5.822.018c.071-1.23.042-2.455.077-3.685-2.03-.377-4.046-.815-6.087-1.129.06,12.664.053,25.328-.019,37.992l-50.731.011c.557,2.128.973,4.242,1.044,6.45.168,5.242-1.452,11.247-3.88,15.898h44.267c4.625.023,7.551-.118,11.439-2.875,2.974.039,5.777.398,8.102-1.84,1.29-1.23,2.04-2.923,2.083-4.705.025-1.311-.381-2.581-1.312-3.526-.998-1.012-2.352-1.401-3.744-1.384-.426.008-.851.023-1.276.044-.014-1.584-.016-3.17-.006-4.754l4.631.018c3.008.007,5.63-.125,7.887-2.386,1.491-1.491,2.321-3.519,2.303-5.629-.018-2.125-.99-4.174-2.498-5.65-2.228-2.18-4.691-2.308-7.647-2.302l-4.674.012-.009-4.219,5.922.015c3.538.013,7.056.289,9.793-2.392,1.464-1.454,2.284-3.435,2.274-5.499.008-2.24-.907-4.335-2.497-5.905-2.753-2.72-6.024-2.588-9.621-2.58Z"/>
      <path class="d" d="M117.747,17.888c.458.157.892.169,1.371.14.862-.271,1.593-.651,2.037-1.476.225-.418.279-.885.319-1.352.156-1.838.23-12.026-.18-13.345-.21-.676-.712-1.228-1.342-1.539-.638-.315-1.152-.35-1.852-.296-.917.335-1.672.784-2.079,1.716-.462,1.06-.448,13.63.021,14.654.332.725.959,1.241,1.706,1.497Z"/>
      <path class="d" d="M102.403,20.912c.589.261,1.174.263,1.804.225.882-.261,1.559-.637,2.008-1.476.316-.59.402-1.4.188-2.038-.333-.995-6.623-8.047-7.575-8.439-.533-.219-1.044-.228-1.61-.198-.871.287-1.553.693-1.993,1.532-.306.586-.412,1.393-.199,2.027.381,1.137,6.345,7.909,7.376,8.367Z"/>
      <path class="d" d="M132.513,20.78c.641.348,1.293.381,2.007.344.391-.139.74-.282,1.062-.552,1.032-.866,6.393-6.799,6.865-7.811.299-.637.311-1.442.04-2.087-.305-.726-.955-1.277-1.686-1.547-.496-.183-.999-.174-1.518-.143-.42.149-.811.297-1.159.582-1.124.919-6.394,6.746-6.875,7.883-.128.301-.2.642-.277.958.264.973.596,1.86,1.541,2.372Z"/>
    </g>
  </g>
</svg>