<?xml version="1.0" encoding="UTF-8"?>
<svg id="b" data-name="Layer 2" xmlns="http://www.w3.org/2000/svg" viewBox="0 0 209.34 142.347">
  <defs>
    <style>
      .d {
        fill: #040633;
      }
    </style>
  </defs>
  <g id="c" data-name="Layer 1">
    <g>
      <path class="d" d="M209.315,118.277l-.01-13.48-.01-42.3v-31.37l.01-9.13c.01-1.72.07-3.46-.06-5.18.01-.02,0-.04,0-.06-.02-.38-.06-.75-.11-1.12-.11-.92-.3-1.83-.56-2.72-.69-2.38-1.88-4.6-3.51-6.5-3.37-3.93-7.9-5.95-13.02-6.33-4.22-.16-8.48-.05-12.7-.05l-23.2.01-72.25.01h-45.2l-14.04-.02c-2.84,0-5.74-.13-8.56.16-3.2.33-6.24,1.62-8.82,3.52C3.455,6.557.925,10.797.245,15.507c-.32,2.31-.21,4.69-.2,7.02v43.84l-.01,40.34v12.26c0,2.36-.13,4.83.11,7.16v.03c.33,3.17,1.64,6.33,3.56,8.85,3.33,4.36,8.08,6.5,13.41,7.22,4.27.22,8.61.07,12.88.07l23.28-.01h23.23c-.06-3.21-.34-9.34.24-11.95.2-.9.58-1.76,1.24-2.42,1.58-1.55,4.16-1.46,6.21-1.41v-58.63l-.02-16.87c0-3.27-.22-6.77.25-10,.37-2.53,1.3-4.8,3.11-6.63,1.41-1.42,3.48-2.7,5.45-3.12,2.68-.58,5.54-.44,8.26-.44h40.13c4.51.01,8.63.38,11.93,3.81,1.2,1.25,2.17,2.99,2.66,4.69.07.21.12.42.17.63.86,3.73.66,8.8.61,12.97-.01.56-.01,1.11-.01,1.63l.04,6.5.08,12.33c5.33.31,10.11.94,13.88,5.14,1.5,1.67,2.54,3.74,3.15,5.89,1.51,5.3,1.1,14.62,1.23,20.37.05,2.19-.08,4.72.86,6.75.23.49.5.93.8,1.31,1.34,1.68,3.39,2.39,5.62,2.53.95.06,2.02.07,3.07-.05,1.46-.17,2.89-.6,3.92-1.51,1.58-1.4,2.17-2.84,2.27-4.92.16-3.33-.1-6.69-.13-10.02l-.29-25.49c-2.35-.27-5.27-.77-7.52-2.07-.87-.49-1.64-1.11-2.24-1.88-.58-.73-.96-1.57-1.16-2.48-.71-3.24-.15-8.59-.15-12.76,0-.77-.02-1.49-.07-2.15l-.14-.05c-3.01-1.09-10.08-4.26-11.48-7.16-.59-1.21-.52-2.75-.08-4,.3-.89.85-1.61,1.73-2,2.12-.93,5.07.15,7.07,1.01,7.9,3.37,19.24,12.24,22.45,20.34,1.36,3.45.92,9.17.93,12.92l.03,10,.13,16.86c0,3.89.28,8.25-.66,12.04-.65,2.65-2.13,5.47-4.05,7.42-3.28,3.33-7.65,4.86-12.27,4.85-3.29-.01-6.77-.79-9.63-2.52-.99-.59-1.9-1.3-2.71-2.13-1.75-1.78-3.05-3.95-3.79-6.34v-.01c-1.45-4.71-1.08-14.04-1.14-19.23-.02-2.08.05-4.32-.39-6.36-.27-1.23-.79-2.44-1.76-3.27-1.86-1.61-4.89-1.58-7.21-1.75l.28,30.6v.29c.02,2.7.09,5.41.12,8.12.03,1.61.03,3.22,0,4.83,2.18.01,4.75-.04,6.4,1.64.61.62.99,1.4,1.2,2.24.61,2.34.44,9.21.35,11.91h19.14c2.88,0,5.85.16,8.71-.15,1.75-.18,3.45-.62,5.07-1.29.23-.09.45-.19.68-.3,1.4-.67,2.72-1.51,3.91-2.52,1.74-1.47,3.2-3.27,4.28-5.28.14-.25.26-.51.39-.76.12-.26.23-.52.34-.78.25-.59.46-1.2.64-1.81.3-1.03.49-2.08.58-3.16.2-2.63.1-5.32.1-7.96ZM64.475,54.407c-.61,1.17-1.56,1.76-2.79,2.17-1.84.19-3.79.08-5.65.08h-23.91c-2.54.01-5.12.09-7.67-.02-.81-.03-1.75-.07-2.5-.38-1.04-.46-1.83-1.4-2.18-2.48-.36-1.08-.34-2.44.23-3.44.68-1.18,1.81-1.7,3.06-2.04,3.7-.2,38.25-.26,39.34.24,1.09.51,1.99,1.39,2.41,2.53.43,1.14.21,2.28-.34,3.34ZM77.525,35.327c-.71,1.34-1.76,1.85-3.14,2.27-2.59.18-5.24.07-7.84.07h-32.33c-3.24,0-6.53.1-9.76-.03-.92-.03-1.95-.07-2.77-.51-1.05-.56-1.74-1.5-2.02-2.65-.27-1.13-.17-2.64.48-3.63.76-1.15,2.04-1.64,3.34-1.87,3.24-.14,6.53-.04,9.78-.04l18.15-.01h14.4c2.63,0,5.33-.12,7.96.06.82.05,1.53.18,2.25.62,1.33.81,1.8,2.14,2.19,3.56-.17.74-.33,1.48-.69,2.16Z"/>
      <path class="d" d="M143.315,42.267c-.67-.36-1.31-.55-2.06-.6-2.69-.19-5.42-.09-8.12-.09l-14.02.01h-12.5c-2.31,0-4.7-.12-7,.09-1.52.28-2.7.77-3.62,2.08-.38.54-.84,1.27-.94,1.93-.28,1.71-.14,3.62-.14,5.36l.01,9.17c.01,2.68-.29,8.1.14,10.48.23,1.28.86,2.46,1.95,3.22.71.49,1.53.79,2.38.88,1.94.22,4.01.09,5.96.09l10.19-.01,16.33.01c3.25,0,6.5.07,9.74-.06,1.52-.35,2.72-.91,3.56-2.3.32-.53.57-1.01.65-1.63.28-2.33.35-23.74-.06-25.27-.4-1.47-1.08-2.62-2.45-3.36Z"/>
    </g>
  </g>
</svg>