<?xml version="1.0" encoding="UTF-8"?>
<svg id="b" data-name="Layer 2" xmlns="http://www.w3.org/2000/svg" viewBox="0 0 212.705 141.996">
  <defs>
    <style>
      .d {
        fill: #040633;
      }
    </style>
  </defs>
  <g id="c" data-name="Layer 1">
    <g>
      <path class="d" d="M212.694,119.579l-.003-9.498-.006-32.062c-.406-2.173-.104-8.359-.107-10.892l-.018-12.698c-.003-2.608-.086-5.236.071-7.841l-212.58-.006.003,55.398-.009,15.021c-.003,3.697-.249,7.533.438,11.174.633,3.359,2.386,6.512,4.804,8.915,2.057,2.048,4.618,3.516,7.421,4.262.701.181,1.432.314,2.184.408,3.386.435,7.172.136,10.44.133l16.593-.009c.003-.041.003-.083.006-.124.154-4.017.086-8.051.083-12.073l-.003-20.068,19.541.021c3.836-.003,7.702.089,11.535-.033l.041,32.153v.127l12.666.003c0-.044-.003-.086-.003-.13-.258-10.694-.047-21.445-.059-32.145,10.339.163,20.714.095,31.055.062.553-2.205.986-4.387,1.767-6.533l-32.805.021.015-17.854c-4.233-.059-8.468-.062-12.701-.009l.012,17.839-23.602.006c-3.2-.003-7.367.287-10.434-.038-.592-.062-1.042-.192-1.53-.539-.876-.622-1.187-1.557-1.323-2.587-.332-2.504-.03-5.286-.024-7.829.006-1.962-.225-4.052,0-5.997.083-.722.26-1.513.725-2.096.45-.562,1.184-.941,1.882-1.063,2.016-.352,4.469-.107,6.526-.101l12.213.027c2.356.003,4.771.124,7.119-.062l.228-.021c-1.37-.308-2.761-.479-4.129-.826-4.011-1.015-7.968-3.596-10.087-7.21-1.578-2.702-2.01-5.92-1.202-8.942.805-3.066,2.936-5.668,5.674-7.237,2.883-1.655,6.311-2.075,9.507-1.166,7.571,2.099,10.765,10.256,14.261,16.46.885-1.279,1.595-2.741,2.374-4.094,2.957-5.153,6.441-10.641,12.497-12.372,3.191-.9,6.609-.494,9.501,1.128,2.732,1.551,4.727,4.138,5.526,7.178.823,3.031.397,6.266-1.181,8.98-3.28,5.562-8.196,6.725-13.962,8.184,3.883.109,26.065-.503,27.779.331,2.797,1.362,1.678,5.766,1.743,8.317.012.477-.038,1.11.142,1.56.024.062.053.124.08.186,1.142-1.444,2.178-2.948,3.401-4.33,5.65-6.376,12.787-10.724,21.086-12.674,10.659-2.507,22.445-.921,31.757,4.913,14.53,9.108,23.206,28.682,19.595,45.594-.352,1.658-.808,3.288-1.362,4.887-.651,1.865-3.073,6.213-2.625,7.933.278,1.054.924,1.595,1.806,2.116h2.537c2.966-.565,6.085-2.853,8.042-4.834,2.294-2.309,3.883-5.221,4.582-8.4.63-2.948.497-5.955.497-8.948Z"/>
      <path class="d" d="M7.255,28.976l13.746.015,43.984-.006,147.619-.012c-.181-3.972-.142-8.11-.009-12.085-.053-4.508-1.909-8.708-5.138-11.869-2.756-2.696-6.236-4.271-10.037-4.76-2.412-.308-4.943-.166-7.373-.166l-11.695.003-40.334.006H57.71c-13.438,0-26.92-.234-40.355.006-4.875.086-9.294,1.681-12.701,5.26C.24,10.009.018,15.014.027,21.055l.021,7.989c2.356-.231,4.843-.071,7.207-.068Z"/>
      <path class="d" d="M62.508,64.545c-.778-.243-1.545-.231-2.353-.189-1.308.32-2.347.861-3.073,2.045-.681,1.11-.838,2.439-.491,3.688.551,1.971,2.021,3.41,3.786,4.348,2.528,1.341,5.502,1.672,8.305,1.971,1.196.038,2.389.056,3.584.044-2.146-4.037-5.064-10.466-9.759-11.908Z"/>
      <path class="d" d="M101.514,68.011c-.192-1.157-.805-2.155-1.779-2.821-1.066-.722-2.158-.891-3.416-.832-3.582.79-5.464,3.51-7.329,6.429-1.157,1.814-2.377,3.718-3.286,5.671,1.649-.006,3.475.077,5.097-.249,3.487-.494,7.527-1.208,9.744-4.277.829-1.143,1.202-2.519.968-3.922Z"/>
      <path class="d" d="M157.352,83.332c-19.142.308-34.397,16.096-34.045,35.238.166,9.004,3.756,17.141,9.507,23.191h22.827l.065-4.854c-2.608-.317-5.138-1.048-7.181-2.771-2.531-2.131-3.54-5.044-3.818-8.258,2.475.03,4.952.003,7.427.003.015.349.027.701.074,1.051.163,1.219.986,2.392,1.974,3.093,1.48,1.054,3.581,1.332,5.34.995,1.427-.275,2.658-1.036,3.439-2.273.58-.923.74-2.104.468-3.158-.772-3.007-6.296-3.96-8.909-4.887-1.693-.601-3.416-1.308-4.94-2.27-1.989-1.258-3.377-3.078-3.88-5.411-.592-2.747-.145-5.603,1.418-7.95,2.096-3.146,4.993-4.313,8.563-5.026l-.053-6.79c1.669-.05,3.342,0,5.008-.05l-.041,6.867c2.326.542,4.384,1.113,6.198,2.756,2.17,1.962,3.362,4.863,3.522,7.749l-7.311-.036c-.189-1.409-.497-2.637-1.619-3.605-1.098-.95-2.625-1.261-4.043-1.157-1.391.104-2.833.622-3.753,1.717-.725.87-.983,2.054-.832,3.164.118.864.559,1.631,1.219,2.193,2.756,2.344,9.365,3.368,13.021,6.018,1.998,1.45,3.359,3.516,3.726,5.982.382,2.549-.255,5.476-1.82,7.539-1.995,2.628-5.07,4.076-8.282,4.517l-.003,4.854h22.383c6.041-6.361,9.682-15.007,9.507-24.467-.349-19.077-16.075-34.273-35.155-33.962Z"/>
    </g>
  </g>
</svg>