<?xml version="1.0" encoding="UTF-8"?>
<svg id="b" data-name="Layer 2" xmlns="http://www.w3.org/2000/svg" viewBox="0 0 204.357 142.416">
  <defs>
    <style>
      .d {
        fill: #040633;
      }
    </style>
  </defs>
  <g id="c" data-name="Layer 1">
    <path class="d" d="M204.335,118.39v-12.823l-.003-40.994-.003-33.089.009-8.825c0-2.648.14-5.405-.39-8.011-.972-4.789-3.789-8.828-7.856-11.487-2.508-1.639-5.403-2.731-8.395-3.004-2.539-.232-5.11-.14-7.658-.138l-10.845.009-35.904.003-113.102.003c-5.755.069-10.84,1.562-14.93,5.79C2.593,8.61.859,12.155.297,15.967c-.519,3.353-.201,8.421-.201,11.952l.003,23.855.006,48.179c0,7.971-.192,15.99.003,23.958.123,5.105,1.849,9.739,5.6,13.293,2.723,2.582,6.325,4.48,10.074,4.956,2.637.332,5.383.212,8.037.212h12.009l40.509-.003h72.75l23.591.006c4.362.003,8.756.112,13.115-.032,1.175-.04,2.362-.115,3.525-.304,4.775-.963,9.16-3.64,11.903-7.721,1.723-2.568,2.711-5.322,2.989-8.401.226-2.482.12-5.036.123-7.526ZM160.871,52.327c.493,2.966,1.23,5.95,1.843,8.896l3.07,15.167c.61,3.061,2.425,9.599,1.657,12.545-.467,1.786-1.952,3.898-3.583,4.812-.57.318-1.207.447-1.834.229-1.232-.43-1.702-1.68-2.193-2.757-2.491-5.489-5.242-10.891-7.819-16.345-2.035-4.308-4.01-9.057-6.337-13.161-.189-.338-.367-.625-.745-.768-1.935,1.258-3.735,3.187-5.457,4.729-1.379,1.232-2.938,2.413-4.193,3.757-.037.043-.075.083-.115.126-.138,2.909.244,9.008-.456,11.45-.181.631-.519,1.433-1.172,1.705-.373.158-.762.1-1.124-.054-1.539-.648-2.935-5.087-3.597-6.681-.59-1.473-1.132-3.201-2.052-4.5-1.966-2.774-6.325-3.419-8.3-6.214-.831-1.181-.745-2.187-.496-3.525.327-.378.668-.748,1.103-1.003,2.279-1.341,6.707,1.235,9.108,1.809.264-.14.53-.284.78-.453,1.232-.823,9.361-7.948,9.513-8.673-.132-.33-.289-.533-.567-.751-2.055-1.628-4.597-2.949-6.83-4.351-4.511-2.872-9.043-5.718-13.591-8.532-1.634-1.012-6.475-3.585-7.432-5.03-.401-.602-.539-1.379-.384-2.084.181-.843.754-1.622,1.485-2.075,1.31-.814,2.989-1.035,4.5-.871,2.107.226,4.15.992,6.168,1.602l7.019,2.095c7.908,2.439,15.867,4.933,23.857,7.082,1.204-.782,2.293-1.935,3.365-2.895,3.118-2.797,10.114-9.685,13.419-11.453,1.688-.906,3.287-1.316,5.185-1.488,1.029-.052,2.104-.092,3.113.143.949.221,1.849.682,2.35,1.551.934,1.616.186,3.388-.473,4.938-.731,1.725-1.488,3.52-2.6,5.039-1.665,2.281-4.101,4.084-6.242,5.904-2.333,1.978-4.655,3.967-6.967,5.97-.857.745-2.433,1.823-2.949,2.809-.175.33-.086.957-.026,1.304ZM53.532,114.083c-.728,1.035-1.748,1.387-2.932,1.619-4.245.166-8.538.034-12.789.04-3.307.006-6.744.203-10.034-.049-.645-.049-1.318-.109-1.889-.447-1.124-.665-1.897-1.714-2.161-2.998-.238-1.169-.049-2.508.631-3.505.757-1.103,1.874-1.459,3.127-1.668,4.669-.095,9.358-.02,14.03-.023,2.869,0,5.887-.189,8.742.075.745.072,1.513.166,2.161.568.977.602,1.608,1.659,1.837,2.769.249,1.198-.014,2.617-.722,3.62ZM51.718,98.494h-1.803c-1.209.057-2.445.006-3.637.006l-8.025-.006h-.401c-.017-.003-.032-.003-.049,0l-6.363-.003c-1.476,0-3.052.103-4.52-.103-.593-.08-1.187-.361-1.665-.722-.751-.57-1.275-1.381-1.493-2.29-.04-.152-.066-.31-.086-.467-.054-.436-.046-.874.026-1.301v-.003c.118-.722.413-1.407.891-1.98.367-.441.771-.725,1.207-.911.679-.292,1.436-.35,2.27-.404,2.207.02,11.181-.155,17.558-.054h.02c5.534-.029,11.866-.046,17.495-.02,7.727.037,14.136.161,15.337.47,1.774.459,3.041,1.321,3.663,2.287.748,1.164.596,2.387-.522,3.477-1.063,1.035-2.683,1.599-4.809,1.9-3.156.232-6.489.132-9.67.132l-4.081-.003-11.341-.003Z"/>
  </g>
</svg>