<?xml version="1.0" encoding="UTF-8"?>
<svg id="b" data-name="Layer 2" xmlns="http://www.w3.org/2000/svg" viewBox="0 0 183.027 179.187">
  <defs>
    <style>
      .d {
        fill: #040633;
      }
    </style>
  </defs>
  <g id="c" data-name="Layer 1">
    <g>
      <path class="d" d="M179.854,88.139c-2.063-2.038-4.864-3.15-7.76-3.081-1.148.026-2.301.356-3.101,1.223-.761.825-1.01,2.04-.933,3.134.062.884.433,1.63,1.123,2.189,2.043,1.661,5.584.502,6.005,4.042.131,1.117-.282,2.248-.992,3.106-1.889,2.284-5.779,2.709-8.529,2.914-1.389.103-2.794.108-4.185.08-.577-16.108-7.402-31.359-19.029-42.523-3.793-3.637-8.119-6.666-12.832-8.983-1.376-.679-2.799-1.215-4.183-1.863-.925-.331-1.858-.638-2.801-.915-3.391,6.986-10.264,11.992-17.484,14.473-1.481.51-2.983.864-4.516,1.187-4.014.723-8.75.635-12.761-.008-2.676-.461-5.292-1.223-7.799-2.271-6.638-2.789-12.96-8.091-15.721-14.854-.577.389-2.468,1.884-2.996,1.789-1.42-1.433-2.817-2.939-4.334-4.267-7.412-6.484-16.589-10.677-26.544-10.721-1.42-.008-3.883-.161-4.969.915-.272.269-.415.561-.402.951.059,1.82,1.84,6.225,2.494,8.181l6.141,18.219c-7.227,7.117-12.176,15.523-15.516,25.057-3.696-.002-10.395-.346-13.719.364-1.035.22-2.104.613-2.865,1.371-.625.625-1.033,1.458-1.228,2.314-.597,2.617-.374,5.99-.382,8.698-.018,4.077.008,8.155.079,12.232.079,3.475.441,6.653,3.099,9.178,3.703,3.516,9.952,4.37,14.867,4.726,3.206,8.891,8.46,16.902,15.339,23.386,1.62,1.512,3.452,2.724,5.098,4.183.684,4.826,1.453,9.649,2.207,14.462.423,2.709.628,5.777,1.558,8.35.325.905.894,1.709,1.671,2.284.646.474,1.33.661,2.115.771,2.701.374,5.651.156,8.383.159,3.15,0,7.163.308,10.167-.249,1.351-.246,2.558-.948,3.339-2.099,1.64-2.417,2.312-11.484,3.163-14.944,9.675,1.955,19.245,2.719,29.076,1.643,3.022-.333,5.99-.987,8.998-1.343.484,2.786.856,5.592,1.269,8.391.308,2.078.449,4.452,1.294,6.384.31.715.81,1.328,1.448,1.776.669.484,1.504.738,2.317.846,2.414.32,5.067.108,7.514.108,2.917.002,8.247.302,10.918-.246,1.015-.208,2.204-.705,2.778-1.615.446-.71.728-1.576.943-2.381.776-2.914,1.179-6.028,1.725-8.998l3.014-16.315c1.422-1.553,2.927-3.034,4.285-4.649,6.587-7.684,11.182-16.874,13.383-26.757.63-2.719,1.025-5.474,1.535-8.217,6.394-.023,12.797-.443,17.589-5.239,2.401-2.406,3.855-5.746,3.821-9.162-.036-2.786-1.176-5.441-3.173-7.386ZM39.013,89.715c-2.604.208-4.887-1.727-5.105-4.329-.218-2.604,1.709-4.893,4.313-5.121,2.614-.226,4.913,1.712,5.133,4.326.218,2.614-1.727,4.908-4.342,5.123ZM118.076,76.634c-.428.405-.887.449-1.451.49-2.168.159-4.411.051-6.587.051l-12.297.005-17.21-.005c-3.247-.003-6.515.064-9.76-.059-.328-.202-.679-.402-.889-.738-.641-1.03-.51-3.296-.279-4.454.172-.851.479-1.13,1.187-1.602,2.86-.11,44.002-.056,46.719.003.187.136.379.274.548.436.738.702.774,2.099.784,3.06.008.948-.028,2.115-.766,2.814Z"/>
      <path class="d" d="M66.782,39.913c.09.246.304.701.497,1.165.03.072.058.142.087.214.085.214.163.424.214.608.03.107.052.205.062.29.011.085.01.158-.004.215l-.203.046h0,0c.16.021.279.051.383.107.052.028.1.062.148.104.048.042.096.093.146.153.16.193.307.399.446.613.197.302.38.617.562.932.205.353.41.705.639,1.033.272.382.561.752.851,1.121,1.235,1.575,2.615,3.032,4.139,4.336,6.11,5.156,14.014,7.691,21.987,7.048.955-.081,1.901-.209,2.835-.383,1.401-.26,2.775-.623,4.112-1.083,4.903-1.686,9.306-4.676,12.705-8.709.038-.046.074-.098.112-.145.196-.245.388-.505.577-.775,1.053-1.505,2.005-3.3,2.968-4.375.049-.056.103-.113.154-.167.056-.641.805-1.786,1.076-2.442.47-1.345.851-2.72,1.145-4.111.151-.715.279-1.435.382-2.157.136-.96.231-1.924.279-2.891.104-2.132-.015-4.27-.37-6.376-.305-1.814-.783-3.604-1.454-5.345-1.049-2.757-2.495-5.313-4.272-7.6-.888-1.144-1.859-2.219-2.905-3.22-.697-.667-1.427-1.3-2.188-1.896-1.141-.895-2.351-1.708-3.621-2.431-.56-.318-1.135-.612-1.718-.895-.299-.145-.597-.292-.902-.427-7.076-3.127-15.111-3.291-22.307-.454-4.925,1.942-9.189,5.16-12.39,9.269-.291.374-.573.754-.846,1.142-1.092,1.552-2.039,3.217-2.821,4.976-.778,1.782-1.362,3.716-1.759,5.72-.141.711-.257,1.43-.349,2.155-.201,1.585-.293,3.197-.259,4.802.072,3.43.685,6.823,1.859,9.833ZM98.514,44.331c-.324.116-.657.22-.999.314s-.692.177-1.05.25h0l.015,3.427-4.841-.013-.015-3.393c-1.206-.203-2.327-.535-3.361-1.053-.804-.403-1.555-.916-2.244-1.587-.239-.233-.459-.471-.66-.714-.201-.242-.383-.49-.549-.741-.991-1.512-1.361-3.207-1.383-5.177.901-.023,1.804-.026,2.708-.024.903.002,1.807.011,2.708.011.055.28.115.562.195.84.08.277.178.548.31.803.595,1.151,1.671,1.971,2.901,2.345,1.381.423,3.001.292,4.305-.356.087-.043.178-.082.262-.13,1.333-.761,1.902-1.866,2.273-3.288-.028-.144-.059-.29-.092-.433-.168-.715-.43-1.38-.875-1.941-.138-.175-.292-.341-.469-.493-.534-.461-1.255-.824-2.083-1.138-.207-.078-.421-.154-.64-.227-.438-.146-.898-.283-1.369-.417-2.119-.603-4.468-1.143-6.119-2.175-.604-.378-1.144-.817-1.626-1.302-1.06-1.065-1.812-2.376-2.147-3.919-.119-.55-.187-1.105-.203-1.657-.047-1.657.376-3.291,1.302-4.719,1.625-2.511,4.011-3.813,6.874-4.441h0v-1.737s.003-1.741.003-1.741c1.609-.039,3.224-.008,4.833,0,0,.017,0,.033,0,.05.004,1.144-.015,2.291-.025,3.435h0c.186.052.37.107.554.161,1.889.558,3.642,1.247,5.144,2.599.475.428.874.876,1.206,1.347.391.552.681,1.14.907,1.757.135.371.247.754.332,1.15.135.629.219,1.287.251,1.984-1.884.059-3.775.026-5.659.026-.097-.303-.198-.602-.312-.893-.114-.291-.241-.573-.39-.842-.296-.537-.677-1.021-1.207-1.412-.15-.111-.311-.211-.482-.301-.512-.271-1.108-.451-1.721-.55-.817-.132-1.664-.118-2.382.023-.596.118-1.176.356-1.691.693-.257.168-.498.362-.717.577-.218.215-.414.452-.58.708-.172.263-.287.551-.374.847-.09.307-.145.623-.139.944,0,.015-.004.029-.003.044.004.107.03.214.044.322s.018.215.044.322c.173.718.618,1.301,1.224,1.787.174.139.357.273.555.396.178.111.364.217.558.317,1.937,1,4.578,1.465,6.133,1.964.748.242,1.491.53,2.202.878.351.172.697.354,1.027.562.343.217.661.459.966.713,1.371,1.142,2.347,2.649,2.735,4.446.273,1.265.289,2.494.059,3.675-.145.745-.399,1.469-.736,2.174-.198.412-.417.82-.679,1.217-.176.266-.363.51-.555.748-.258.32-.525.621-.81.892-.038.036-.081.065-.119.101-.967.886-2.079,1.52-3.326,1.967Z"/>
    </g>
  </g>
</svg>