<?xml version="1.0" encoding="UTF-8"?>
<svg id="b" data-name="Layer 2" xmlns="http://www.w3.org/2000/svg" viewBox="0 0 115.543 179.804">
  <defs>
    <style>
      .d {
        fill: #040633;
      }
    </style>
  </defs>
  <g id="c" data-name="Layer 1">
    <g>
      <path class="d" d="M115.54,158.595l.002-8.86-.008-30.229-.005-100.635c-.029-5.218-1.271-9.688-5.061-13.456-2.451-2.437-5.805-4.194-9.179-4.922-2.429-.525-4.978-.424-7.451-.427l-7.907.012c-9.944.004-19.902.106-29.843-.02-9.302.163-18.627.019-27.932.024-3.969.002-10.656-.364-14.312.452-3.56.83-6.802,2.679-9.329,5.321C2.173,8.291.651,11.632.225,14.974c-.286,2.249-.19,4.556-.189,6.821l.008,10.021.003,34.425-.002,64.67-.003,21.118c-.001,3.657-.098,7.341.006,10.995.131,4.596,1.764,8.813,5.162,12.003,2.391,2.209,5.34,3.722,8.528,4.377,2.508.496,5.156.352,7.702.348l8.714-.01c9.813,0,19.645.135,29.455.004l26.183-.005,7.816.01c2.922.002,5.87.142,8.734-.54,3.065-.729,5.928-2.399,8.149-4.624,2.558-2.542,4.237-5.834,4.796-9.396.318-2.167.248-4.412.252-6.597ZM45.099,10.811c.586-.657,1.336-.975,2.202-1.015,3.228-.188,6.557-.019,9.794-.015,3.857.005,7.758-.134,11.607.062.297.163.613.347.871.569.548.473.899,1.227.957,1.944.058.709-.162,1.467-.643,2-.614.679-1.351.82-2.225.847-4.799-.133-9.639-.02-14.443-.003-2.084.007-4.364.202-6.43-.069-.525-.069-.995-.285-1.397-.63-.521-.448-.795-1.069-.844-1.748-.052-.711.067-1.399.551-1.942ZM59.236,172.337c-4.245.839-8.366-1.923-9.205-6.168-.839-4.244,1.921-8.366,6.166-9.207,4.245-.839,8.368,1.922,9.208,6.168.839,4.245-1.923,8.368-6.169,9.207ZM106.943,57.277v54.802l.006,24.021-.012,6.354c-.004,1.157.104,2.469-.123,3.599-.308,1.531-1.263,2.452-2.52,3.261-.528.21-1.019.348-1.585.396-1.672.144-3.389.064-5.068.065h-8.824s-28.008-.002-28.008-.002l-32.103-.004-10.04.01c-1.844.004-3.732.089-5.571-.032-.949-.062-2.077-.516-2.794-1.156-1.292-1.153-1.527-2.464-1.587-4.102-.096-2.668-.009-5.366-.005-8.038l-.002-14.674-.003-45.728v-32.137s-.005-10.119-.005-10.119c-.002-1.905-.096-3.859.042-5.757.083-1.145.306-2.163,1.136-3.017,1.008-1.038,2.287-1.255,3.664-1.292,1.884-.146,3.849-.026,5.742-.026h11.468s35.971,0,35.971,0l24.658-.004,7.413-.005c1.504,0,3.104-.087,4.594.122,1.02.143,2.074.881,2.657,1.714.644.921.82,1.735.861,2.829.124,3.365.034,6.76.035,10.128l.004,18.792Z"/>
      <path class="d" d="M102.332,71.721c-.647-2.756-2.195-5.335-4.646-6.839-1.296-.795-3.177-1.003-4.274-1.95-.367-.316-.679-.557-1.118-.764-1.257-.059-2.286-.012-3.291.87-.648.559-1.037,1.358-1.079,2.213-.052.974.314,2.075.993,2.785.603.629,1.471.942,2.333.949,1.786.015,3.088-.58,4.571.889.826.819,1.329,2.019,1.543,3.148.466,2.461.175,5.329.163,7.843-.013,3.107.07,6.227.001,9.333-.091,4.15-1.596,7.852-4.609,10.745-3.068,2.96-7.195,4.57-11.458,4.468-4.191-.099-8.173-1.854-11.073-4.882-1.88-1.99-3.102-4.339-3.719-7.003-.695-2.995-.32-8.581-.312-11.919.005-2.697-.113-5.415-.022-8.107.046-1.325.307-2.663,1.316-3.603.756-.702,1.698-1.068,2.661-1.38,1.204.464,2.37.824,3.627.269.857-.378,1.484-1.128,1.778-2.008.311-.934.245-2.032-.218-2.905-.427-.807-1.169-1.401-2.05-1.64-.577-.156-1.185-.103-1.773-.063-.716.317-1.252.833-1.935,1.155-.847.399-1.806.591-2.671.968-2.378,1.037-4.389,3.39-5.304,5.786-.383,1.006-.625,2.06-.719,3.132-.294,3.312-.059,6.795-.06,10.133-.002,3.567-.279,7.686.129,11.167.245,2.162.823,4.274,1.713,6.259,2.238,4.891,6.624,8.751,11.644,10.615,1.425.529,2.903.865,4.389,1.167.137,7.338-.653,13.655-6.025,19.185-3.793,3.903-8.983,6.315-14.449,6.383-5.539.093-10.877-2.072-14.786-5.997-4.523-4.468-6.055-9.499-6.343-15.703,3.339-.827,6.312-3.121,8.073-6.067,1.768-2.959,2.341-6.753,1.465-10.091-.919-3.404-3.153-6.302-6.209-8.058-3.216-1.854-7.243-2.293-10.813-1.317-3.496.94-6.464,3.252-8.229,6.413-1.675,3.002-2.072,6.552-1.1,9.849,1.077,3.543,3.522,6.512,6.793,8.246,1.252.668,2.555,1.047,3.927,1.381.058,7.583,2.582,14.524,8.034,19.926,1.302,1.291,2.732,2.501,4.275,3.493,5.995,3.841,13.274,5.131,20.224,3.585,7.032-1.595,13.144-5.916,16.995-12.012,3.88-6.048,4.496-12.276,4.406-19.243,5.953-1.4,11.106-4.297,14.412-9.614,1.383-2.256,2.339-4.749,2.816-7.353.78-4.251.399-9.357.381-13.703-.013-3.251.367-6.963-.377-10.13ZM28.04,107.622c-1.396-1.995-1.611-4.588-.563-6.786,1.048-2.198,3.196-3.665,5.625-3.838,3.696-.263,6.917,2.495,7.223,6.188.306,3.692-2.415,6.945-6.104,7.293-2.424.23-4.785-.862-6.181-2.858Z"/>
      <path class="d" d="M31.196,66.076l-.011,7.773c-.001,1.799-.09,3.642.165,5.427.812.913,1.091,1.141,2.343,1.213,3.391.195,6.884.016,10.285.003.631-.163,1.206-.306,1.56-.901.612-1.031.265-11.556.256-13.513,2.613-.02,5.225-.021,7.838-.003,1.305.008,2.724.149,4.012.001.54-.062,1.08-.229,1.483-.609.354-.335.54-.776.637-1.246.326-1.571.052-6.848.029-8.719-.011-.923-.04-1.846-.087-2.768-.409-.652-.793-1.195-1.593-1.37-.988-.215-2.317-.047-3.338-.044-2.973.009-5.995.113-8.962-.023l.005-8.084c.004-1.384.18-3.045-.11-4.4-.066-.31-.251-.628-.478-.848-.209-.203-.464-.367-.7-.537-3.06-.389-7.91-.127-11.171-.121-1.031.115-1.34.434-2.013,1.158-.493,4.175-.036,8.556-.171,12.767l-7.873-.006c-1.638,0-3.373-.117-4.989.17-.306.287-.644.569-.896.905-.309,1.56-.313,10.115-.121,11.945.037.35.109.639.297.942.235.378.633.622,1.012.836,4.191.145,8.397-.012,12.59.052Z"/>
    </g>
  </g>
</svg>