<?xml version="1.0" encoding="UTF-8"?>
<svg id="b" data-name="Layer 2" xmlns="http://www.w3.org/2000/svg" viewBox="0 0 153.325 179.127">
  <defs>
    <style>
      .d {
        fill: #040633;
      }
    </style>
  </defs>
  <g id="c" data-name="Layer 1">
    <g>
      <path class="d" d="M153.187,64.542l-.107-21.603c-.011-4.062.125-8.176-.064-12.228-.078-1.671-.347-3.364-1.625-4.577-.589-.559-1.363-.94-2.149-1.125-2.325-.548-4.98-.464-7.373-.698-3.844-.405-7.661-1.032-11.433-1.881-12.212-2.756-24.212-7.423-35.27-13.271-3.541-1.878-7.045-3.826-10.511-5.841-1.626-.931-3.428-2.236-5.162-2.911-.625-.244-1.35-.38-2.022-.407-.927.095-1.811.17-2.678.542-2.837,1.217-5.558,3.159-8.275,4.658-5.87,3.266-11.855,6.32-17.946,9.154-8.718,3.982-17.885,6.896-27.302,8.681-3.378.646-6.786,1.125-10.211,1.436-2.094.195-4.544.017-6.552.594-.968.278-1.856.893-2.496,1.665-.702.847-1.074,1.859-1.224,2.939-.407,2.931-.253,6.109-.274,9.076l-.152,12.552c-.131,14.345-1.038,28.937.628,43.215,2.956,25.333,17.229,45.121,36.875,60.66,3.034,2.391,6.131,4.703,9.285,6.931,6.003,4.124,12.149,8.038,18.426,11.732,2.78,1.653,5.719,3.619,8.72,4.818.753.302,1.43.427,2.238.474.998-.046,1.871-.173,2.806-.545,3.048-1.216,6.005-3.281,8.82-4.982,9.792-5.92,19.535-12.198,28.423-19.42,4.656-3.785,9.038-7.895,13.114-12.299,13.565-14.898,21.719-31.176,23.242-51.439.645-8.596.292-17.29.247-25.9ZM135.269,77.228c.004,13.872-.176,23.51-6.774,36.171-8.788,16.86-24.776,29.209-40.652,38.979-2.403,1.479-7.861,5.011-10.318,5.787-.657-.004-1.136-.152-1.728-.418-3.804-1.709-7.519-4.143-11.069-6.321-16.842-10.333-34.346-24.709-41.611-43.68-1.932-5.108-3.195-10.443-3.759-15.874-.455-4.11-.426-8.269-.426-12.398l.007-12.949.007-13.952c0-2.621-.115-5.301.047-7.914.037-.603.095-1.336.381-1.875.218-.411.917-.609,1.335-.738,1.405-.434,2.944-.591,4.393-.856,2.058-.386,4.107-.82,6.146-1.3,11.1-2.667,21.831-6.685,31.954-11.964,2.776-1.427,5.499-2.974,8.225-4.496,1.645-.918,3.469-2.18,5.275-2.696,1.548.2,3.118,1.356,4.471,2.118,8.085,4.549,16.248,8.552,24.934,11.827,5.386,2.009,10.88,3.712,16.458,5.102,1.766.418,3.538.801,5.32,1.149,2.01.38,4.476.494,6.306,1.377.415.2.6.392.74.823.684,2.079.335,12.743.334,15.598l.005,18.5Z"/>
      <path class="d" d="M116.348,75.198c-.074-.448-.338-.892-.635-1.23-.684-.781-1.635-.811-2.605-.843-4.88-.162-9.814.005-14.698.014-1.978.004-4.056.131-6.023-.05-.531-.048-1.312-.139-1.727-.516-.42-.38-.552-1.157-.621-1.688-.241-1.851-.067-3.948-.064-5.818l.014-11.492c.002-1.486.311-3.851-.292-5.205-.416-.93-1.386-1.453-2.368-1.527-2.901-.22-5.94-.045-8.853-.044-4.006.002-8.051-.11-12.054.01-.809.128-1.653.349-2.153,1.058-.31.44-.368,1.054-.421,1.573-.187,1.843-.081,3.796-.085,5.65-.012,5.434.299,11.253-.099,16.632-.453.672-.745,1.097-1.573,1.266-1.906.389-4.227.15-6.176.146l-12.053-.037c-1.501-.004-3.531-.231-4.968.234-.632.205-1.071.738-1.432,1.269l-.072.107c-.429,2.88-.151,7.029-.152,10.066,0,3.814-.21,7.77.039,11.563.041.62.088,1.564.434,2.078.494.732,1.673,1.053,2.495,1.147,1.844.212,3.862.052,5.723.048l10.869-.025c1.557-.004,3.321-.182,4.848.071.545.091,1.185.263,1.543.718.345.438.476,1.079.54,1.618.211,1.779.057,3.705.057,5.502l-.007,11.19c0,1.605-.319,4.19.352,5.64.357.773,1.247,1.369,2.069,1.514,2.135.375,4.972.11,7.165.104,4.658-.009,9.321.028,13.978-.032.832-.093,1.566-.342,2.092-1.038,1.556-2.064-.392-23.112,1.047-24.604.347-.361,1.038-.502,1.508-.582,1.837-.317,3.988-.103,5.863-.101l11.759.015c1.738.001,3.624.15,5.325-.222.943-.814,1.409-1.39,1.499-2.694.09-1.301.016-2.648.015-3.957l.012-7.407c.004-2.671.282-7.735-.111-10.122Z"/>
    </g>
  </g>
</svg>