<?xml version="1.0" encoding="UTF-8"?>
<svg id="b" data-name="Layer 2" xmlns="http://www.w3.org/2000/svg" viewBox="0 0 126.186 176.929">
  <defs>
    <style>
      .d {
        fill: #040633;
      }
    </style>
  </defs>
  <g id="c" data-name="Layer 1">
    <g>
      <path class="d" d="M16.659,108.168c7.758,11.51,16.221,22.528,25.342,32.99,4.491,5.194,9.091,10.464,14.072,15.198,2.266,2.154,4.347,3.28,7.523,3.186.078-.001.157-.006.236-.01,1.557-.158,2.997-.6,4.293-1.497,2.305-1.598,4.283-3.993,6.209-6.022,5.504-5.81,10.8-11.814,15.876-18.002,12.131-14.893,28.477-36.055,33.712-54.586,1.998-7.069,2.654-14.875,1.907-22.18-1.576-16.87-9.901-32.388-23.085-43.032C91.367,4.934,77.112-.091,62.431.001,45.131.353,29.829,6.947,17.807,19.457,6.116,31.559-.232,47.845.186,64.666c.173,7.559,1.732,15.022,4.599,22.019,3.077,7.604,7.359,14.658,11.874,21.483ZM61.87,21.332c23.312-.622,42.726,17.75,43.39,41.061.663,23.311-17.672,42.759-40.982,43.465-23.37.709-42.879-17.684-43.545-41.056-.666-23.372,17.763-42.847,41.137-43.47Z"/>
      <path class="d" d="M49.768,62.82c7.563-1.15,12.749-8.23,11.564-15.787-1.185-7.557-8.289-12.711-15.841-11.491-7.503,1.212-12.615,8.259-11.438,15.768,1.177,7.508,8.201,12.653,15.715,11.511ZM46.994,43.675c2.908-.434,5.617,1.57,6.054,4.478.437,2.907-1.563,5.619-4.47,6.06-2.912.442-5.63-1.563-6.067-4.476-.438-2.912,1.57-5.628,4.483-6.062Z"/>
      <path class="d" d="M66.741,80.172c.327,7.526,6.687,13.363,14.213,13.048,7.543-.315,13.398-6.693,13.069-14.235-.327-7.542-6.714-13.387-14.256-13.047-7.524.339-13.353,6.709-13.026,14.234ZM85.606,78.477c.577,2.865-1.293,5.652-4.163,6.204-2.834.545-5.58-1.297-6.149-4.127-.57-2.83,1.247-5.591,4.072-6.186,2.861-.602,5.664,1.243,6.241,4.109Z"/>
      <path class="d" d="M47.964,80.276c-1.914,2.737-3.914,5.42-5.702,8.24-.246.389-.152.992-.049,1.418.248,1.021.969,1.829,1.862,2.351.901.526,1.866.724,2.903.675,1.329-.109,2.418-.487,3.322-1.521.85-.973,1.574-2.118,2.319-3.175l3.917-5.546,13.97-19.8,10.153-14.385c1.529-2.195,3.307-4.42,4.56-6.781.323-.609.192-1.672-.042-2.298-.332-.893-1.059-1.508-1.926-1.862-.868-.354-1.89-.463-2.825-.418-1.451.209-2.599.646-3.517,1.846-1.75,2.289-3.306,4.792-4.963,7.152l-11.91,16.966-12.074,17.138Z"/>
      <path class="d" d="M125.984,154.85c-.733-3.388-3.344-5.955-6.199-7.705-5.911-3.626-14.22-5.273-21.016-6.183-2.057-.276-4.133-.391-6.188-.663-2.118,1.986-4.217,4.963-6.182,7.216,6.412.752,26.609,3.306,30.619,8.412.247.315.431.677.613,1.033-1.987,3.53-8.215,5.208-11.93,6.247-6.774,1.894-13.78,2.912-20.766,3.649-18.378,1.938-39.092,1.734-57.255-1.965-5.389-1.098-11.357-2.532-16.18-5.255-.914-.516-2.672-1.455-2.901-2.575-.101-.492.02-.853.306-1.245,3.062-4.203,17.72-6.52,22.912-7.301,2.432-.367,4.936-.548,7.341-1.047-1.203-1.565-4.787-6.123-6.155-7.137-4.088.244-8.292.772-12.29,1.666-6.448,1.318-15.194,3.571-19.011,9.411-1.461,2.236-2.05,5.07-1.497,7.698.694,3.301,3.171,5.798,5.913,7.565,4.958,3.194,11.109,4.904,16.804,6.234,23.237,5.427,55.768,5.268,79.045.114,6.808-1.508,18.785-4.684,22.7-10.872,1.323-2.091,1.84-4.87,1.316-7.296Z"/>
    </g>
  </g>
</svg>