<?xml version="1.0" encoding="UTF-8"?>
<svg id="b" data-name="Layer 2" xmlns="http://www.w3.org/2000/svg" viewBox="0 0 152.525 177.061">
  <defs>
    <style>
      .d {
        fill: #040633;
      }
    </style>
  </defs>
  <g id="c" data-name="Layer 1">
    <g>
      <path class="d" d="M152.525,36.894c-1.121.06-2.193.091-3.256.488-2.181.814-3.993,3.402-6.367,3.377-3.649-.042-5.263-4.677-9.542-3.902-2.986.537-4.858,3.956-7.877,3.879-3.33-.084-4.944-4.216-8.944-3.947-3.328.223-5.191,3.956-8.37,3.94-3.23-.016-4.858-4.109-8.786-3.944-3.437.144-5.216,3.965-8.356,3.958-2.635-.007-4.507-2.742-6.944-3.547-1.193-.395-2.481-.433-3.728-.398.191,6.628-.053,13.272.051,19.905,3.528.272,6.814,1.793,9.128,4.502,1.302,1.507,2.153,3.349,2.458,5.316.377,2.426.172,5.079.17,7.533l-.009,13.137.007,16.875c.002,2.837.181,5.793-.051,8.612-.237,2.854-1.837,5.709-4.016,7.535-2.223,1.865-4.844,2.686-7.695,2.909-.105,6.409.091,12.823-.009,19.233,1.037.002,2.037.026,3.051-.247,2.6-.7,4.247-3.542,6.93-3.735,3.379-.24,5.089,4.051,9.188,4.021,3.781-.03,5.447-3.998,8.675-4.009,3.449-.009,4.807,4.726,9.47,3.923,2.935-.507,4.661-3.961,7.637-3.907,3.461.065,4.73,4.435,9.151,3.942,3.749-.419,5.66-5.423,9.809-3.509l.144.086c3.347,2.035,3.642,3.432,8.063,3.439l-.023-64.947c0-13.5-.17-27.021.042-40.519ZM115.174,48.769c10.491-1.084,19.881,6.528,20.991,17.016,1.112,10.491-6.477,19.898-16.965,21.035-10.521,1.14-19.97-6.481-21.084-17.007s6.53-19.956,17.058-21.044ZM132.585,121.823c-.284.891-.914,1.263-1.707,1.651-2.581.191-29.798.216-30.784-.102-.577-.186-1.098-.758-1.363-1.284-.27-.528-.402-1.165-.188-1.737.333-.884.881-1.314,1.719-1.679,2.351-.149,30.042-.212,30.898.107.567.214,1.007.661,1.281,1.193.314.607.351,1.205.144,1.851ZM142.36,110.42c-.358.705-.937.988-1.651,1.24-2.246.165-4.512.105-6.76.107l-10.298-.005-13.898-.002c-2.565,0-5.144.053-7.707-.035-.646-.023-1.723.023-2.288-.305-.551-.323-.923-.854-1.095-1.463-.181-.661-.084-1.37.274-1.953.342-.57.898-.814,1.512-.979,2.005-.084,4.028-.028,6.035-.026l10.881.002c7.435-.002,14.909-.163,22.342.007.435.009,1.133-.016,1.535.167.588.274,1.032.753,1.246,1.365.214.619.17,1.295-.128,1.879ZM142.102,98.788c-.437.612-1.014.839-1.732.974-2.275.119-4.614.012-6.896.012l-13.714-.007-11.851.005c-2.109.002-6.214.298-8.091-.281-.537-.477-.956-.958-1.139-1.665-.154-.605-.112-1.232.226-1.772.456-.726,1.149-.958,1.949-1.116,1.64-.151,3.379-.035,5.033-.035l9.828.005,15.5-.002c2.726,0,5.477-.074,8.2.016.616.019,1.251.016,1.819.291.879.428,1.177,1.209,1.474,2.077-.146.519-.288,1.056-.605,1.5Z"/>
      <path class="d" d="M112.05,77.432c.753.386,1.598.621,2.402.881.077.893.298,1.765,1.03,2.354.43.347.923.493,1.458.581.744-.077,1.409-.212,1.902-.826.488-.605.595-1.4.737-2.142,1.74-.509,3.237-1.393,4.161-3.019.823-1.444.956-3.393.498-4.986-.488-1.691-1.751-2.888-3.26-3.698-1.449-.774-5.858-1.721-6.281-3.326-.112-.423-.035-.932.193-1.305.286-.47.888-.877,1.421-1,2.523-.577,5.507,4.416,7.57,1.4.286-.419.419-.863.547-1.349-.372-1.484-1.002-2.323-2.339-3.121-.77-.458-1.612-.816-2.442-1.14-.074-.828-.26-1.651-.919-2.221-.588-.509-1.274-.57-2.016-.528-.814.337-1.365.658-1.723,1.502-.179.426-.279.898-.391,1.347-1.877.712-3.409,1.649-4.281,3.556-.667,1.458-.786,3.24-.198,4.742.751,1.912,2.481,3.156,4.321,3.914,1.388.572,4.507,1.114,5.172,2.619.16.363.172.698.014,1.065-.274.649-.937,1.242-1.605,1.458-.886.288-1.944-.07-2.721-.502-1.188-.66-2.753-2.119-4.209-1.73-.628.167-1.077.674-1.381,1.226-.288.516-.391,1.04-.223,1.616.351,1.214,1.486,2.079,2.565,2.63Z"/>
      <path class="d" d="M14.808,118.383l17.086-.007,32.458.002c5.065-.002,10.191.174,15.251.005,2.14-.072,3.967-.661,5.453-2.265.712-.767,1.179-1.8,1.349-2.828.423-2.568.156-5.479.151-8.091-.005-6.086-.151-12.212.021-18.293-10.112-.119-20.235-.021-30.349-.021l-56.168.009.035,17.837c-.002,2.414-.293,6.393.146,8.635.23,1.165.947,2.305,1.795,3.126.905.87,2.184,1.586,3.435,1.758,2.937.395,6.354.137,9.335.133ZM57.183,97.509c1.512-1.705,3.491-2.419,5.716-2.544,1.758-.105,3.36.653,4.807,1.558,1.281-.73,2.526-1.34,4.012-1.512,1.956-.228,3.921.337,5.46,1.568,1.602,1.295,2.633,3.17,2.865,5.216.242,2.244-.365,4.461-1.807,6.207-1.453,1.76-3.453,2.591-5.681,2.8-1.721.195-3.505-.553-4.967-1.372-1.188.719-2.456,1.221-3.847,1.347-2.1.191-4.186-.479-5.781-1.856-1.607-1.379-2.558-3.421-2.698-5.523-.142-2.126.498-4.284,1.921-5.888ZM9.076,102.315c.449-.535,1.088-.651,1.749-.732,2.291-.037,14.291-.335,15.556.374.546.305.926.872,1.084,1.47.172.649.128,1.409-.242,1.986-.47.726-1.205.974-2.012,1.121-2.672.114-5.384.026-8.061.028-2.021.002-4.158.14-6.167-.067-.523-.051-1.026-.137-1.47-.437-.577-.388-1.016-1.061-1.114-1.751-.098-.695.233-1.463.677-1.991Z"/>
      <path class="d" d="M29.906,73.3l56.671.006-.014-.294c.032-2.307.36-5.322-.535-7.474-.674-1.621-1.922-2.706-3.522-3.35-.676-.272-1.295-.39-2.02-.416-4.048-.146-8.142-.023-12.195-.023l-23.609.002-24.762-.004c-4.377-.003-8.793-.124-13.166.012-.841.026-1.625.053-2.411.388-1.376.36-2.584,1.411-3.286,2.629-1.441,2.501-.993,5.78-.989,8.554,9.936-.178,19.898-.031,29.837-.031Z"/>
      <path class="d" d="M109.819,146.353c-2.441-.038-4.945-.128-7.383-.001-.148,1.336-.247,2.787-1.405,3.678-.736.566-1.695.717-2.6.75-2.022.073-4.068.011-6.091.014l-12.043.003h-35.253l-17.725-.006c-2.401.002-6.512.252-8.69-.112-.678-.113-1.674-.601-2.063-1.187-.398-.6-.587-1.549-.658-2.257-.265-2.642-.07-5.483-.071-8.143l.002-15.485c-2.689.016-5.389-.017-8.076.053.195,9.436.063,18.894.065,28.334,0,3.521-.349,10.337.36,13.451.654,2.879,2.142,5.501,4.278,7.541,1.954,1.878,4.582,3.309,7.265,3.779,2.815.493,6.03.22,8.897.218l16.062-.006h33.395c5.612.001,11.259.137,16.869-.007,4.293-.11,8.014-1.673,10.969-4.837.624-.669,1.202-1.434,1.679-2.215.88-1.552,1.582-3.092,1.937-4.852.504-2.492.292-5.205.29-7.741l-.01-10.972Z"/>
      <path class="d" d="M7.857,27.597l-.012,28.616c2.737-.005,5.523-.109,8.256.047l-.007-19.626c0-2.665-.228-6.667.088-9.219.102-.828.258-1.595.874-2.198.568-.551,1.223-.802,1.995-.895,2.002-.237,4.123-.102,6.142-.098l10.367.009h55.289c2.472,0,6.377-.279,8.672.116.667.116,1.263.44,1.751.905,1.591,1.523.958,5.24,1.028,7.307,2.509-.009,5.021-.002,7.53.019v-10.921c0-6.465.533-11.977-4.437-16.956-2.167-2.172-4.949-3.798-7.986-4.363-2.835-.53-5.963-.284-8.842-.281h-13.935l-50.217-.005c-.728.002-1.467-.019-2.193.023-4.47.507-8.181,2.463-10.989,6.019-1.574,2.011-2.637,4.374-3.1,6.884-.391,2.188-.284,4.477-.281,6.691l.005,7.926ZM45.913,12.485c.319-.826.793-1.142,1.56-1.502,3.158-.209,6.412-.06,9.579-.06,4.544,0,9.105-.084,13.644.049.986.595,1.298,1.126,1.609,2.219-.093.43-.191.842-.395,1.235-.349.674-.872.974-1.579,1.186-4.723.109-9.461.049-14.186.056-1.674.002-7.502.253-8.786-.167-.593-.193-1.058-.693-1.323-1.244-.254-.528-.337-1.214-.123-1.77Z"/>
    </g>
  </g>
</svg>