<?xml version="1.0" encoding="UTF-8"?>
<svg id="b" data-name="Layer 2" xmlns="http://www.w3.org/2000/svg" viewBox="0 0 171.154 179.76">
  <defs>
    <style>
      .d {
        fill: #040633;
      }
    </style>
  </defs>
  <g id="c" data-name="Layer 1">
    <g>
      <path class="d" d="M65.53,96.071c0,1.906-.087,3.865.064,5.768.009.111.023.219.038.329,3.571,1.215,7.24,2.186,10.854,3.267l21.54,6.479c3.224.973,6.442,1.97,9.654,2.99,2.323.749,4.614,1.717,7.033,2.096,4.422.688,9.61.323,14.142.323,4.054,0,8.231.204,12.265-.058,1.804-.242,3.518-.839,4.643-2.364.816-1.108,1.011-2.268,1.07-3.597.12-2.816.026-5.678.023-8.499l-.009-15.559-.003-47.169.006-24.192v-7.1c-.003-1.332.09-2.769-.12-4.086-.227-1.434-1.268-2.824-2.466-3.603-.909-.595-1.854-.866-2.921-.95-3.078-.245-6.278-.058-9.368-.055l-17.223-.009-28.25-.035c-4.949-.003-9.925-.117-14.871.015-1.828.151-3.367.72-4.608,2.145-.968,1.11-1.294,2.151-1.408,3.585-.163,2.011-.084,4.066-.084,6.086v73.979l-.003,10.213ZM127.337,92.527c.726,4.658-2.454,9.024-7.109,9.761-4.672.743-9.062-2.451-9.791-7.126-.729-4.675,2.48-9.053,7.159-9.77,4.658-.711,9.015,2.478,9.741,7.135ZM120.726,71.471c-1.271,2.058-2.903,3.993-4.349,5.931l-8.249,11.123-6.051,8.199c-1.003,1.364-1.991,2.973-3.18,4.177-.685.694-1.469,1.014-2.408,1.236-.88.029-1.787.012-2.646-.195-.63-.151-1.087-.364-1.428-.941-.012-.341.041-.414.201-.729,1.043-2.04,2.67-3.923,4.043-5.768l7.097-9.552,7.596-10.26c1.297-1.749,2.559-3.742,4.043-5.325.571-.606,1.143-.886,1.924-1.143.912-.05,1.743-.044,2.632.233.586.181,1.256.519,1.472,1.143.181.522-.42,1.425-.697,1.871ZM113.27,46.815c-.921-3.678-7.64-4.524-10.726-5.468-1.752-.536-3.518-1.198-5.098-2.136-2.349-1.396-4.083-3.378-4.76-6.063-.699-2.781-.385-6.133,1.131-8.601,2.116-3.454,5.389-4.844,9.146-5.777-.032-1.157-.093-2.411.507-3.448.56-.968,1.466-1.306,2.495-1.586,1.096-.052,2.142.076,2.97.877,1.134,1.105,1.172,2.711,1.175,4.183,1.935.481,3.676,1.102,5.322,2.25,2.958,2.058,4.334,5.098,4.952,8.555-2.04.775-4.515,1.218-6.678,1.521-.723-1.784-1.466-3.492-3.116-4.626-1.667-1.143-4.273-1.387-6.235-1.009-1.39.268-2.734,1.038-3.527,2.239-.595.895-.816,2.163-.557,3.206.909,3.646,8.01,4.646,11.038,5.599,1.731.545,3.428,1.207,4.967,2.186,2.312,1.475,4.119,3.664,4.687,6.389.592,2.813.096,6.165-1.495,8.581-2.206,3.349-5.625,4.658-9.394,5.413.012.361.015.72.012,1.081-.02,1.058-.393,2.183-1.189,2.912-.898.813-1.906.912-3.055.892-.778-.207-1.53-.542-2.075-1.154-.95-1.064-.819-2.524-.784-3.844-2.548-.312-5.168-1.405-7.124-3.075-2.495-2.131-3.544-4.774-3.818-7.978,2.136-.726,4.474-1.078,6.689-1.486.77,1.915,1.504,3.684,3.291,4.894,2.034,1.376,4.5,1.758,6.887,1.262,1.513-.312,3.084-1.105,3.932-2.44.618-.971.703-2.253.428-3.349ZM94.832,67.492c4.672-.536,8.905,2.801,9.47,7.47.568,4.669-2.74,8.922-7.406,9.52-4.71.603-9.012-2.743-9.584-7.456-.574-4.713,2.804-8.992,7.52-9.534Z"/>
      <path class="d" d="M96.482,79.253c1.475-.312,2.55-1.594,2.594-3.104.032-.997-.391-1.956-1.154-2.603-.764-.644-1.775-.909-2.757-.714-1.784.353-2.941,2.09-2.574,3.874.364,1.781,2.11,2.926,3.891,2.547Z"/>
      <path class="d" d="M118.118,90.659c-1.749.437-2.822,2.203-2.405,3.955.417,1.755,2.169,2.845,3.926,2.451,1.157-.262,2.084-1.122,2.428-2.256.344-1.137.049-2.367-.767-3.227-.816-.857-2.035-1.21-3.183-.924Z"/>
      <path class="d" d="M171.11,124.531c-.222-2.355-1.463-4.487-3.298-5.958-2.069-1.66-4.71-2.16-7.298-1.838-3.534.44-8.883,3.76-12.128,5.461l-23.729,12.262c-4.267,2.212-8.521,4.767-12.934,6.647-1.451.618-2.97,1.114-4.544,1.297-3.763.442-7.897-.482-11.625-1.042l-9.776-1.46c-2.486-.372-12.601-1.504-13.884-2.485-.446-.341-.669-.829-.707-1.383-.037-.536.133-1.131.514-1.521.554-.57,1.327-.606,2.075-.582,2.708.087,5.498.665,8.185,1.042l15.399,2.18c3.155.449,6.692,1.233,9.868.803,1.74-.232,3.368-.994,4.658-2.185,1.638-1.539,2.489-3.655,2.54-5.882.052-2.319-.778-4.496-2.412-6.165-.947-.968-1.998-1.511-3.243-2.01-1.957-.786-4.052-1.333-6.071-1.943l-10.557-3.161c-5.917-1.785-11.852-3.515-17.803-5.187-3.272-.936-6.537-2.021-9.86-2.756-1.843-.407-3.778-.679-5.667-.695-.835-.006-1.689-.016-2.519.077-2.299.243-4.526.657-6.734,1.352-3.26,1.025-6.37,2.591-9.457,4.043-3.768,1.772-7.564,3.552-11.237,5.512l.033,29.512c-.001,5.016-.195,10.119.067,15.125,3.263.235,6.579-.187,9.824.265,4.068.567,8.9,2.259,12.903,3.451l19.249,5.723,11.817,3.54c3.579,1.097,7.175,2.377,10.889,2.922,2.265.334,4.732.347,7.004.074,3.522-.442,6.917-1.605,9.97-3.415,3.371-1.995,6.487-4.648,9.591-7.041l15.837-12.267,20.049-15.484c3.957-3.031,8.131-5.958,11.902-9.209.344-.297.681-.6,1.001-.924,1.592-1.954,2.349-4.162,2.109-6.698Z"/>
      <path class="d" d="M23.969,117.474c-.219-.869-.842-1.965-1.618-2.448-.676-.423-1.58-.624-2.364-.711-2.268-.251-4.733-.073-7.021-.07-2.871.003-5.815-.123-8.677.041-1.39.303-2.644.912-3.445,2.136-.606.927-.659,1.985-.714,3.061-.198,3.751-.047,7.572-.047,11.329v32.884c0,1.9-.271,4.328.169,6.171.28,1.166,1.096,2.311,2.142,2.903.699.396,1.513.627,2.306.726,1.994.259,4.151.105,6.162.099,3.066-.009,6.15.047,9.216-.044,1.393-.335,2.623-.839,3.399-2.128.458-.758.568-1.317.615-2.186.204-3.949.044-7.975.044-11.936v-33.785c0-1.857.28-4.253-.166-6.042ZM12.549,167.587c-1.163.128-2.303-.379-2.988-1.326-.685-.947-.81-2.186-.326-3.25.487-1.067,1.504-1.787,2.67-1.892,1.772-.16,3.346,1.14,3.521,2.915.178,1.772-1.105,3.358-2.877,3.553Z"/>
    </g>
  </g>
</svg>