<?xml version="1.0" encoding="UTF-8"?>
<svg id="b" data-name="Layer 2" xmlns="http://www.w3.org/2000/svg" viewBox="0 0 172.716 179.737">
  <defs>
    <style>
      .d {
        fill: #040633;
      }
    </style>
  </defs>
  <g id="c" data-name="Layer 1">
    <g>
      <path class="d" d="M172.623,64.476c.003-4.212.102-8.448-.006-12.66-.067-2.645-.645-4.892-2.61-6.779-.938-.897-2.172-1.69-3.458-1.942-3.516-.691-9.981-.328-13.784-.328l-19.604.003c-4.334.006-8.674.078-13.009-.067,7.673-2.784,16.022-8.085,19.561-15.711,2.209-4.758,2.645-10.286.798-15.241-1.663-4.465-5.112-7.989-9.432-9.961-5.118-2.334-10.921-2.314-16.159-.351-9.746,3.652-16.832,12.843-21.91,21.573-.964,1.661-2.616,5.446-3.928,6.604-1.231,1.089-2.958,1.202-4.424.517-2.09-.973-4.137-5.992-5.371-8.126C72.553,10.362,62.772-.449,48.211.076c-5.22.566-9.827,2.723-13.157,6.86-3.356,4.175-4.416,9.058-3.791,14.333.711,6.012,4.114,11.136,8.825,14.82,3.681,2.877,7.699,4.895,12.033,6.587-4.084.195-8.201.093-12.292.093l-20.142.003c-3.687-.003-10.126-.395-13.523.377-1.428.325-2.755,1.196-3.739,2.267-.801.868-1.637,2.122-1.948,3.269-.764,2.807-.383,8.219-.383,11.267,0,3.652-.125,7.356.049,11.003.099,2.125.798,4.024,2.381,5.507,2.055,1.928,4.578,1.887,7.202,1.858l.142,64.037.023,17.41c.003,3.161-.25,6.599.224,9.722.369,2.415,1.507,4.77,3.234,6.506,1.196,1.205,2.593,1.991,4.085,2.77,1.411.737,3.478.816,5.04.854,10.248.255,20.563.02,30.816.017l59.789.003h26.215c2.938.003,12.167.363,14.501-.354,3.411-1.08,6.314-3.161,7.998-6.378.938-1.788,1.277-3.513,1.425-5.519.288-3.931.081-7.995.081-11.943l-.003-22.156-.006-36.303c0-6.213.119-12.457-.018-18.667,2.639.026,5.109-.038,7.118-2.058.906-.911,1.774-2.346,2.029-3.611.511-2.54.198-5.568.2-8.172ZM51.918,31.23c-3.98-2.25-8.5-5.74-9.737-10.379-.586-2.203-.412-4.694.772-6.677,1.167-1.96,3.077-2.886,5.211-3.382.778-.081,1.597-.102,2.375-.003,6.784.856,12.802,7.475,16.748,12.599,1.591,2.067,8.169,11.624,7.682,13.557-.075.302-.299.581-.552.755-1.225.833-3.739.035-5.101-.229-6.073-1.353-11.955-3.164-17.398-6.242ZM30.885,65.768c.081-.813.206-1.385.717-2.05.801-1.045,1.983-1.512,3.249-1.69.07-.006.136-.011.206-.011,1.161-.044,2.404.389,3.237,1.208.639.63,1.054,1.44,1.28,2.305.685,2.601.302,8.884.287,11.813,3.879-.134,7.789-.047,11.67-.041l17.271.02c-.014-2.659-.375-10.091.224-12.181.311-1.077.987-2.047,1.983-2.589,1.17-.639,2.909-.7,4.163-.299,1.103.351,2.087,1.138,2.589,2.195.366.772.444,1.928.494,2.778.273,4.831.035,9.798.032,14.64-.003,4.938.229,9.992-.029,14.916-.032.615-.09,1.228-.337,1.797-.557,1.289-1.539,2.006-2.825,2.471-.499.096-.981.171-1.492.165-1.295-.014-2.502-.432-3.405-1.391-.618-.659-1.016-1.495-1.216-2.369-.531-2.296-.195-8.735-.183-11.467-4.111.128-8.253.026-12.367.029-5.521.003-11.052.078-16.574-.017.018,2.973.604,10.997-.9,13.334-.656,1.019-1.594,1.51-2.767,1.716-1.303.229-2.743-.07-3.812-.859-1.013-.752-1.24-1.588-1.428-2.767-.299-1.867-.168-3.835-.168-5.722l-.006-8.634-.003-10.846c-.003-2.137-.107-4.331.11-6.454ZM22.623,94.776c-.816-.267-1.579-.819-1.954-1.614-.279-.595-.299-1.428-.334-2.084-.122-2.34-.293-18.972.232-20.266.409-1.016,1.333-1.527,2.276-1.96.583-.055,1.185-.119,1.757.038.972.261,1.788.795,2.276,1.695.34.63.401,1.559.45,2.27.171,2.508.311,18.484-.258,20.049-.377,1.031-1.289,1.55-2.215,2.012-.792.078-1.46.11-2.229-.139ZM82.717,134.179c-.345,2.543-1.271,5.045-2.578,7.249-4.752,8.012-17.575,19.062-25.103,24.859-4.311-2.662-8.361-6.082-12.117-9.473-4.012-3.185-10.173-9.368-13.18-13.505-3.121-4.294-4.538-9.403-3.687-14.675.624-3.864,2.77-7.563,5.963-9.862,3.118-2.244,7.005-3.138,10.788-2.488,5.104.851,8.518,4.05,11.432,8.105.787-1.065,1.576-2.128,2.453-3.121,2.894-3.281,6.578-4.958,10.918-5.217.796-.029,1.646.014,2.433.116,3.789.491,7.229,2.462,9.566,5.484,2.764,3.559,3.713,8.1,3.112,12.527ZM89.194,90.906c-.041.691-.087,1.512-.377,2.143-.473,1.022-1.55,1.55-2.555,1.887-.804.067-1.571.032-2.325-.285-.708-.296-1.463-.906-1.739-1.643-.706-1.861-.563-17.352-.38-20.15.049-.72.104-1.687.43-2.331.491-.97,1.428-1.359,2.407-1.672.729-.084,1.405-.078,2.099.183.92.348,1.669,1.022,2.061,1.936.673,1.585.528,17.302.38,19.933ZM126.902,68.967c.258-.406.508-.813.833-1.173,3.283-3.603,8.373-4.99,13.058-5.301.554-.081,1.135-.064,1.695-.061,1.806.009,3.861.276,5.165,1.646.688.723.848,1.608.967,2.563.418,3.362.128,7.42.128,10.849l-.029,21.129c-4.735-1.899-10.904-1.759-15.755-.398-2.038.697-4.404,1.518-6.079,2.918-.082-5.905-.05-11.813-.052-17.72-.003-4.813-.073-9.641.07-14.452ZM122.109,67.431c.424.435.824.885.92,1.507.476,3.104.166,7.484.163,10.75l-.026,21.724-3.263-1.585c-5.629-3.092-13.128-3.048-19.259-1.756-.148-6.529-.049-13.084-.052-19.616,0-3.838-.264-7.899.09-11.708.076-.807.218-1.486.671-2.174.842-1.28,2.09-1.759,3.521-2.058.633-.075,1.272-.11,1.907-.107,5.011-.02,11.667,1.28,15.328,5.025ZM101.703,29.096c4.7-7.426,10.756-16.234,19.854-18.284,2.009-.224,4-.128,5.812.871,1.693.935,2.854,2.502,3.362,4.36.694,2.514.116,5.13-1.144,7.359-4.25,7.513-15.595,11.464-23.544,13.619-1.623.432-6.091,1.756-7.484.917-.331-.2-.525-.546-.598-.92-.412-2.169,2.616-6.146,3.742-7.922ZM126.844,168.717c-15.68,1.306-29.443-10.37-30.703-26.058-1.263-15.682,10.451-29.411,26.139-30.633,15.627-1.214,29.292,10.445,30.549,26.073,1.257,15.625-10.364,29.321-25.986,30.619Z"/>
      <path class="d" d="M123.204,118.047c-12.391.708-21.843,11.354-21.077,23.741.767,12.391,11.458,21.791,23.843,20.969,12.303-.819,21.631-11.427,20.87-23.733-.76-12.306-11.325-21.683-23.637-20.978ZM131.434,148.401c-.981,2.282-2.729,3.266-4.929,4.128v3.368l-1.989.006-1.832.003.02-3.449c-.038-.003-.078-.006-.116-.012l-.186-.023c-1.327-.151-2.572-.61-3.632-1.434-1.896-1.472-2.357-3.423-2.636-5.67,1.437.023,2.874.058,4.308.099.035.226.075.45.125.674.227,1.016.938,1.846,1.829,2.366.865.508,1.962.677,2.935.415.897-.241,1.6-.865,2.044-1.669.354-.639.404-1.425.163-2.114-.813-2.337-5.911-2.973-7.975-4.096-1.605-.871-2.74-2.264-3.217-4.038-.45-1.719-.168-3.548.781-5.051,1.315-2.096,3.295-2.822,5.574-3.365l.003-3.344,3.818-.02-.017,3.582c.943.276,1.832.624,2.63,1.205,1.867,1.35,2.442,3.208,2.772,5.368-1.396-.015-2.778-.006-4.172.055-.021-.055-.041-.107-.061-.16-.412-1.074-.784-2.116-1.925-2.59-.897-.374-2.314-.424-3.217-.047-.778.325-1.484,1.158-1.794,1.928-.209.52-.221,1.033.017,1.544,1.008,2.166,4.506,2.694,6.541,3.484,1.887.735,3.594,1.954,4.384,3.89.662,1.614.427,3.397-.247,4.967Z"/>
    </g>
  </g>
</svg>