<?xml version="1.0" encoding="UTF-8"?>
<svg id="b" data-name="Layer 2" xmlns="http://www.w3.org/2000/svg" viewBox="0 0 209.336 142.349">
  <defs>
    <style>
      .d {
        fill: #040633;
      }
    </style>
  </defs>
  <g id="c" data-name="Layer 1">
    <g>
      <path class="d" d="M209.299,118.972l.003-12.265-.009-40.34-.003-34.351.006-9.491c.003-2.325.115-4.708-.206-7.017-.676-4.708-3.206-8.952-7.023-11.788-2.58-1.904-5.628-3.191-8.828-3.518-2.817-.29-5.718-.162-8.55-.159l-14.041.013-45.207.003-72.251-.006-23.195-.009c-4.225-.003-8.482-.118-12.701.041C12.175.47,7.641,2.486,4.269,6.422,2.038,9.027.624,12.236.203,15.642c-.271,2.094-.178,4.25-.171,6.357l.012,9.133-.003,31.363-.003,42.303-.009,13.477c0,2.642-.109,5.335.1,7.968.368,4.574,2.748,8.853,6.223,11.791,2.733,2.309,6.101,3.742,9.66,4.11,2.867.302,5.83.15,8.712.15l13.95-.006,47.011.003h70.384l23.273.013c4.272,0,8.609.143,12.878-.069,5.335-.72,10.086-2.86,13.411-7.22,1.919-2.524,3.231-5.684,3.562-8.849.24-2.349.106-4.827.106-7.192ZM64.433,54.15c-.611,1.175-1.558,1.764-2.786,2.172-1.848.187-3.792.081-5.652.081l-9.831-.003-14.075.006c-2.549.003-5.129.081-7.678-.022-.804-.034-1.751-.069-2.493-.386-1.047-.455-1.835-1.399-2.187-2.471-.355-1.084-.34-2.443.237-3.449.673-1.172,1.804-1.695,3.054-2.035,3.705-.196,38.255-.262,39.339.243,1.094.511,1.991,1.39,2.418,2.53.427,1.134.203,2.278-.346,3.334ZM77.483,35.067c-.707,1.34-1.754,1.854-3.135,2.275-2.593.181-5.244.069-7.843.069l-13.91.003-18.425-.003c-3.241,0-6.522.1-9.759-.025-.916-.034-1.948-.075-2.767-.517-1.05-.561-1.739-1.496-2.019-2.649-.274-1.125-.171-2.642.48-3.627.76-1.15,2.035-1.642,3.337-1.876,3.244-.137,6.531-.037,9.778-.037l18.154-.003,14.399-.003c2.633-.003,5.335-.118,7.961.056.823.053,1.533.187,2.25.62,1.334.81,1.801,2.141,2.187,3.562-.165.738-.33,1.48-.689,2.156ZM183.115,118.274c-1.405,1.387-3.294,2.437-5.229,2.857-3.029.654-7.36.284-10.526.284l-19.852-.009h-22.544c-3.156.006-8.485.38-11.423-.215-2.016-.408-4.306-1.577-5.783-3.016-2.169-2.119-3.484-5.285-3.512-8.304-.034-3.745.458-7.575.745-11.308l1.374-18.677,1.072-14.549c.181-2.446.178-5.079.639-7.482.24-1.274.922-2.452,1.857-3.35,2.733-2.639,8.958-1.863,12.604-1.854-.137-6.911.929-13.333,5.571-18.727,4.045-4.699,9.607-7.341,15.745-7.831.604-.084,1.253-.078,1.86-.072,5.896.044,11.682,2.714,15.767,6.918,5.431,5.587,6.512,12.221,6.413,19.718,3.851.009,10.192-.91,13.059,1.935.91.907,1.415,2.147,1.645,3.396.449,2.427.449,5.126.645,7.594l1.293,16.446,1.412,17.609c.262,3.166.714,6.435.71,9.604-.006,3.459-1.047,6.565-3.543,9.033Z"/>
      <path class="d" d="M175.49,72.758c-.321-3.982-.726-7.977-.882-11.972l-6.699-.009c.022,2.767.748,8.744-1.281,10.772-.682.682-1.599.96-2.549.938-1.169-.025-2.287-.405-3.072-1.306-1.764-2.022-1.112-7.684-1.106-10.389l-29.337-.012c.034,2.761.717,8.544-1.178,10.598-.735.795-1.726,1.116-2.786,1.106-1.075-.006-2.1-.346-2.845-1.141-1.919-2.035-1.225-7.815-1.184-10.56-2.237-.006-4.49.05-6.721-.028-.174,4.138-.567,8.276-.882,12.408l-1.701,22.011-.667,8.694c-.137,1.739-.393,3.562-.315,5.3.05,1.078.137,1.817.891,2.633,1.112,1.212,2.396,1.193,3.917,1.215,12.645.178,25.324-.019,37.972-.019l13.336.009c2.371,0,4.87.153,7.235-.075.685-.069,1.259-.371,1.764-.838.829-.77,1.047-2.125,1.047-3.2-.003-4.958-.925-9.999-1.153-14.966-.651-7.052-1.253-14.109-1.804-21.17Z"/>
      <path class="d" d="M159.948,52.657c-.012-5.462-.645-10.305-4.724-14.33-2.761-2.727-6.509-4.104-10.364-4.026-.321.006-.642.022-.963.05-3.92.402-7.351,2.022-9.862,5.123-3.194,3.945-3.481,8.323-3.477,13.184l16.057.003,13.333-.003Z"/>
    </g>
  </g>
</svg>