<?xml version="1.0" encoding="UTF-8"?><svg id="Capa_2" xmlns="http://www.w3.org/2000/svg" xmlns:xlink="http://www.w3.org/1999/xlink" viewBox="0 0 384.81 383.06"><defs><style>.cls-1{fill:url(#linear-gradient-5);}.cls-2{fill:url(#linear-gradient-4);}.cls-3{fill:url(#linear-gradient-3);}.cls-4{fill:url(#linear-gradient-2);}.cls-5{fill:url(#linear-gradient);}</style><linearGradient id="linear-gradient" x1="84.46" y1="84.02" x2="214.12" y2="84.02" gradientUnits="userSpaceOnUse"><stop offset="0" stop-color="#febe0b"/><stop offset="1" stop-color="#8f07fd"/></linearGradient><linearGradient id="linear-gradient-2" x1="260.25" y1="232.77" x2="175.87" y2="241.38" gradientUnits="userSpaceOnUse"><stop offset="0" stop-color="#febe0b"/><stop offset="1" stop-color="#fe006f"/></linearGradient><linearGradient id="linear-gradient-3" x1="179.76" y1="18.98" x2="295.91" y2="97.92" xlink:href="#linear-gradient"/><linearGradient id="linear-gradient-4" x1="-1556.35" y1="169.27" x2="-1557.7" y2="331.26" gradientTransform="translate(1734.73 44.67) skewX(-17.03)" xlink:href="#linear-gradient-2"/><linearGradient id="linear-gradient-5" x1="176.41" y1="323.89" x2="271.13" y2="215.63" gradientUnits="userSpaceOnUse"><stop offset="0" stop-color="#cf51fe"/><stop offset="1" stop-color="#8f07fd"/></linearGradient></defs><g id="Capa_4"><polygon class="cls-5" points="110.66 0 84.46 168.03 214.12 92.2 110.66 0"/><path class="cls-4" d="M216.11,302.34h-82.2v-97.03c0-15.11,12.25-27.37,27.37-27.37h116.76l-61.92,124.4Z"/><path class="cls-3" d="M110.66,0l250.9,223.6s54.03-117.59-41.21-189.87C290.8,11.3,254.29,0,217.19,0h-106.53Z"/><path class="cls-2" d="M79.78,383.06H0s65.17-162.36,65.17-162.36c10.34-25.75,36.2-42.75,65.05-42.75h79.78s-65.17,162.36-65.17,162.36c-10.34,25.75-36.2,42.75-65.05,42.75Z"/><path class="cls-1" d="M171.25,302.34h66.62c78.64,0,144.78-61.83,146.88-140.44,1.34-50.26-21.97-100.05-64.4-128.17,0,0-18.46,150.84-149.1,268.61Z"/></g></svg>